<svg xmlns="http://www.w3.org/2000/svg" width="32" height="32" viewBox="0 0 32 32">
  <g id="invoice" transform="translate(-319 -443)">
    <rect id="Rectangle_5179" data-name="Rectangle 5179" width="32" height="32" transform="translate(319 443)" fill="#fff" opacity="0"/>
    <g id="Group_6331" data-name="Group 6331" transform="translate(0 -1)">
      <circle id="Ellipse_9" data-name="Ellipse 9" cx="10" cy="10" r="10" transform="translate(331 456)" fill="#fff" opacity="0.15"/>
      <g id="Group_14648" data-name="Group 14648" transform="translate(322.5 448)">
        <path id="Path_60298" data-name="Path 60298" d="M0,0H24V24H0Z" fill="none"/>
        <path id="Path_60299" data-name="Path 60299" d="M14,3V7a1,1,0,0,0,1,1h4" fill="none" stroke="#fff" stroke-linecap="round" stroke-linejoin="round" stroke-width="1.5"/>
        <path id="Path_60300" data-name="Path 60300" d="M17,21H7a2,2,0,0,1-2-2V5A2,2,0,0,1,7,3h7l5,5V19A2,2,0,0,1,17,21Z" fill="none" stroke="#fff" stroke-linecap="round" stroke-linejoin="round" stroke-width="1.5"/>
        <line id="Line_45" data-name="Line 45" x2="1" transform="translate(9 7)" fill="none" stroke="#fff" stroke-linecap="round" stroke-linejoin="round" stroke-width="1.5"/>
        <line id="Line_46" data-name="Line 46" x2="6" transform="translate(9 13)" fill="none" stroke="#fff" stroke-linecap="round" stroke-linejoin="round" stroke-width="1.5"/>
        <line id="Line_47" data-name="Line 47" x2="2" transform="translate(13 17)" fill="none" stroke="#fff" stroke-linecap="round" stroke-linejoin="round" stroke-width="1.5"/>
      </g>
    </g>
  </g>
</svg>
