<svg id="cash" xmlns="http://www.w3.org/2000/svg" width="24" height="24" viewBox="0 0 24 24">
  <rect id="Rectangle_5161" data-name="Rectangle 5161" width="24" height="24" fill="none"/>
  <path id="Path_7320" data-name="Path 7320" d="M85.809,51.606V50.443a1.874,1.874,0,0,1,1.875-1.875h14.25a1.874,1.874,0,0,1,1.875,1.875v1.163a1.873,1.873,0,0,1,1.5,1.837v8.25a1.874,1.874,0,0,1-1.875,1.875H86.184a1.874,1.874,0,0,1-1.875-1.875v-8.25a1.873,1.873,0,0,1,1.5-1.837Zm15,1.462a7.5,7.5,0,0,1,0,9h2.626a.375.375,0,0,0,.375-.375v-8.25a.375.375,0,0,0-.375-.375Zm-9.966,0a6,6,0,0,0,0,9h7.934a6,6,0,0,0,0-9Zm-2.033,0H86.184a.374.374,0,0,0-.375.375v8.25a.374.374,0,0,0,.375.375H88.81a7.5,7.5,0,0,1,0-9Zm5.249,1.49a.75.75,0,0,1,1.5.01v.007a3.462,3.462,0,0,1,1.18.508.75.75,0,0,1-.859,1.23,2.013,2.013,0,0,0-1.342-.322c-.251.035-.479.155-.479.457,0,.067.049.1.1.128a1.534,1.534,0,0,0,.275.116c.322.108.693.18,1.029.278.928.271,1.6.761,1.6,1.728a1.788,1.788,0,0,1-1.268,1.813,2.24,2.24,0,0,1-.232.067.75.75,0,0,1-1.5-.011v-.012a3.506,3.506,0,0,1-1.169-.486.75.75,0,1,1,.839-1.243,2.1,2.1,0,0,0,1.355.319c.249-.034.475-.148.475-.447,0-.067-.049-.1-.1-.128a1.534,1.534,0,0,0-.275-.117c-.323-.108-.693-.179-1.029-.277-.928-.271-1.6-.761-1.6-1.728a1.907,1.907,0,0,1,.364-1.169A1.98,1.98,0,0,1,94.059,54.558Zm8.25-2.99V50.443a.374.374,0,0,0-.375-.375H87.684a.374.374,0,0,0-.375.375v1.125Z" transform="translate(-82.809 -44.068)" fill="#008f58" fill-rule="evenodd"/>
</svg>
