<svg xmlns="http://www.w3.org/2000/svg" version="1.1" xmlns:xlink="http://www.w3.org/1999/xlink" width="512" height="512" x="0" y="0" viewBox="0 0 24 24" style="enable-background:new 0 0 512 512" xml:space="preserve" class=""><g><g data-name="Layer 2"><path d="M12 22.3A10.62 10.62 0 0 1 6.84 21a.26.26 0 0 0-.2 0l-3.53 1a1.24 1.24 0 0 1-1.56-1.55l1.06-3.55a.27.27 0 0 0 0-.19 10.75 10.75 0 1 1 11.69 5.35 11.47 11.47 0 0 1-2.3.24zm-5.29-2.87a1.85 1.85 0 0 1 .85.22 9.25 9.25 0 1 0 2.9-17.23A9.23 9.23 0 0 0 3.9 16a1.77 1.77 0 0 1 .15 1.35l-.93 3.09 3.09-.93a1.73 1.73 0 0 1 .5-.08z" fill="#000000" opacity="1" data-original="#000000" class=""></path><circle cx="8" cy="12" r="1.25" fill="#000000" opacity="1" data-original="#000000" class=""></circle><circle cx="12" cy="12" r="1.25" fill="#000000" opacity="1" data-original="#000000" class=""></circle><circle cx="16" cy="12" r="1.25" fill="#000000" opacity="1" data-original="#000000" class=""></circle></g></g></svg>