<svg xmlns="http://www.w3.org/2000/svg" version="1.1" xmlns:xlink="http://www.w3.org/1999/xlink" width="512" height="512" x="0" y="0" viewBox="0 0 21 21" style="enable-background:new 0 0 512 512" xml:space="preserve" fill-rule="evenodd" class=""><g><g fill="red" fill-rule="nonzero"><path d="M17.741 3.599v.012l-.002.035v.005l-.923 14.522c-.03.483-.235.925-.553 1.244a1.723 1.723 0 0 1-1.23.513h-9.15c-.486 0-.916-.196-1.233-.513a1.92 1.92 0 0 1-.55-1.248L3.26 3.648v-.039l-.001-.023v-.029a.418.418 0 0 1 .414-.421h.004v-.002h13.647a.42.42 0 0 1 .418.465zM15.98 18.12l.9-14.146H4.119l.818 14.15c.016.273.13.521.307.699a.897.897 0 0 0 .639.268h9.15c.25 0 .471-.103.636-.267.178-.18.293-.43.31-.704z" fill="" opacity="1"></path><path d="M1.472 3.974a.42.42 0 0 1 0-.84H19.53a.42.42 0 0 1 0 .84z" fill="" opacity="1"></path><path d="M8.05 1.047h4.902c.333 0 .637.137.858.357l.001.002h.001c.22.221.356.525.356.857v1.291a.42.42 0 0 1-.42.42H7.253a.42.42 0 0 1-.42-.42V2.263c0-.333.136-.637.357-.857v-.001l.001-.001.001-.001c.221-.22.525-.356.857-.356zm4.902.84H8.049a.374.374 0 0 0-.265.11h-.002a.374.374 0 0 0-.11.266v.871h5.656v-.87a.374.374 0 0 0-.109-.266l-.002-.002a.374.374 0 0 0-.265-.11zM7.267 6.443a.42.42 0 0 1 .84 0v10.179a.42.42 0 0 1-.84 0zM10.08 6.443a.42.42 0 0 1 .84 0v10.179a.42.42 0 0 1-.84 0zM12.894 6.443a.42.42 0 0 1 .84 0v10.179a.42.42 0 0 1-.84 0z" fill="" opacity="1"></path></g></g></svg>