<svg id="cloud" xmlns="http://www.w3.org/2000/svg" width="24" height="24" viewBox="0 0 24 24">
  <path id="Path_18678" data-name="Path 18678" d="M0,0H24V24H0Z" fill="none"/>
  <path id="Path_18679" data-name="Path 18679" d="M19,16.75H7A5.361,5.361,0,0,1,1.545,11.5a5.337,5.337,0,0,1,4.88-5.221,5.818,5.818,0,0,1,2.1-2.809A6.78,6.78,0,0,1,12.494,2.2a7.013,7.013,0,0,1,1.251.113A6.4,6.4,0,0,1,17.946,5a5.39,5.39,0,0,1,.91,3.249H19a4.25,4.25,0,0,1,0,8.5ZM12.494,3.7A4.76,4.76,0,0,0,7.732,7.164.75.75,0,0,1,7,7.75,3.861,3.861,0,0,0,3.045,11.5,3.861,3.861,0,0,0,7,15.25H19a2.75,2.75,0,0,0,0-5.5H18a.75.75,0,0,1-.732-.914A3.87,3.87,0,0,0,16.7,5.829a4.89,4.89,0,0,0-3.218-2.042A5.509,5.509,0,0,0,12.494,3.7Z" fill="#535357"/>
  <path id="Line_1" data-name="Line 1" d="M14,.75H0A.75.75,0,0,1-.75,0,.75.75,0,0,1,0-.75H14a.75.75,0,0,1,.75.75A.75.75,0,0,1,14,.75Z" transform="translate(5 20)" fill="#535357"/>
</svg>
