<svg xmlns="http://www.w3.org/2000/svg" version="1.1" xmlns:xlink="http://www.w3.org/1999/xlink" width="512" height="512" x="0" y="0" viewBox="0 0 512 512" style="enable-background:new 0 0 512 512" xml:space="preserve" class=""><g><linearGradient id="a" x1="256" x2="256" y1="514" y2="2" gradientTransform="matrix(1 0 0 -1 0 514)" gradientUnits="userSpaceOnUse"><stop offset="0" style="stop-color:#2AF598" stop-color="#2af598"></stop><stop offset="1" style="stop-color:#009EFD" stop-color="#009efd"></stop></linearGradient><path d="M452 40h-24V0h-40v40H124V0H84v40H60C26.916 40 0 66.916 0 100v352c0 33.084 26.916 60 60 60h392c33.084 0 60-26.916 60-60V100c0-33.084-26.916-60-60-60zM60 80h24v40h40V80h264v40h40V80h24c11.028 0 20 8.972 20 20v48H40v-48c0-11.028 8.972-20 20-20zm392 392H60c-11.028 0-20-8.972-20-20V188h432v264c0 11.028-8.972 20-20 20zM76 230h40v40H76v-40zm80 0h40v40h-40v-40zm80 0h40v40h-40v-40zm80 0h40v40h-40v-40zm80 0h40v40h-40v-40zM76 310h40v40H76v-40zm80 0h40v40h-40v-40zm80 0h40v40h-40v-40zm80 0h40v40h-40v-40zM76 390h40v40H76v-40zm80 0h40v40h-40v-40zm80 0h40v40h-40v-40zm80 0h40v40h-40v-40zm80-80h40v40h-40v-40z" style="fill:url(#a);" fill=""></path></g></svg>