<svg xmlns="http://www.w3.org/2000/svg" width="24" height="24" viewBox="0 0 24 24">
  <g id="debt" transform="translate(-335 -129)">
    <rect id="Rectangle_5165" data-name="Rectangle 5165" width="24" height="24" transform="translate(335 129)" fill="#cc0938" opacity="0"/>
    <g id="Group_6304" data-name="Group 6304" transform="translate(0 -1)">
      <path id="Rectangle_5166_-_Outline" data-name="Rectangle 5166 - Outline" d="M4,1.5A2.5,2.5,0,0,0,1.5,4v9A2.5,2.5,0,0,0,4,15.5H20A2.5,2.5,0,0,0,22.5,13V4A2.5,2.5,0,0,0,20,1.5H4M4,0H20a4,4,0,0,1,4,4v9a4,4,0,0,1-4,4H4a4,4,0,0,1-4-4V4A4,4,0,0,1,4,0Z" transform="translate(335 134)" fill="#cc0938"/>
      <g id="Group_6303" data-name="Group 6303" transform="translate(338.627 134)">
        <path id="Path_7321" data-name="Path 7321" d="M16.746,0H0V16.746H16.746Z" fill="none"/>
        <path id="Path_7322" data-name="Path 7322" d="M3,14.727a.75.75,0,0,1-.53-1.28L8.052,7.865a.75.75,0,0,1,1.061,0l2.261,2.261L15.029,6.47A.75.75,0,0,1,16.09,7.53L11.9,11.717a.75.75,0,0,1-1.061,0L8.582,9.456,3.53,14.508A.748.748,0,0,1,3,14.727Z" transform="translate(-0.907 -2.116)" fill="#cc0938"/>
        <path id="Path_7323" data-name="Path 7323" d="M18.884,15.634H14a.75.75,0,0,1-.75-.75V10a.75.75,0,0,1,1.5,0v4.134h4.134a.75.75,0,0,1,0,1.5Z" transform="translate(-11.907 -3.023)" fill="#cc0938"/>
      </g>
    </g>
  </g>
</svg>
