<svg xmlns="http://www.w3.org/2000/svg" width="43.999" height="43.999" viewBox="0 0 43.999 43.999">
  <g id="discover" transform="translate(-325 -259)">
    <g id="Group_6314" data-name="Group 6314" transform="translate(325 259)">
      <g id="Group_6313" data-name="Group 6313">
        <circle id="Ellipse_3" data-name="Ellipse 3" cx="22" cy="22" r="22" fill="#e5f4ee"/>
      </g>
    </g>
    <path id="bill" d="M26.889,14.057H23.275V3.215a1.265,1.265,0,0,0-.6-1.084,1.094,1.094,0,0,0-1.2,0L17.854,4.179,14.24,2.131a1.094,1.094,0,0,0-1.2,0L9.421,4.179,5.807,2.131a2.053,2.053,0,0,0-1.2,0A1.265,1.265,0,0,0,4,3.215V22.49A3.55,3.55,0,0,0,7.614,26.1H24.479a3.55,3.55,0,0,0,3.614-3.614V15.262A1.138,1.138,0,0,0,26.889,14.057ZM12.433,9.238h2.409a1.138,1.138,0,0,1,1.2,1.2,1.138,1.138,0,0,1-1.2,1.2H12.433a1.138,1.138,0,0,1-1.2-1.2A1.138,1.138,0,0,1,12.433,9.238Zm4.819,12.047H10.023a1.2,1.2,0,1,1,0-2.409h7.228a1.2,1.2,0,0,1,0,2.409Zm0-4.819H10.023a1.2,1.2,0,1,1,0-2.409h7.228a1.2,1.2,0,1,1,0,2.409Zm8.433,6.023a1.2,1.2,0,0,1-2.409,0V16.466h2.409Z" transform="translate(330.953 266.973)" fill="#008f58"/>
  </g>
</svg>
