<svg xmlns="http://www.w3.org/2000/svg" width="43.999" height="43.999" viewBox="0 0 43.999 43.999">
  <g id="dollar_master" transform="translate(-325 -259)">
    <g id="Group_6314" data-name="Group 6314" transform="translate(325 259)">
      <g id="Group_6313" data-name="Group 6313">
        <circle id="Ellipse_3" data-name="Ellipse 3" cx="22" cy="22" r="22" fill="#6c9" opacity="0.2"/>
        <g id="Group_14643" data-name="Group 14643" transform="translate(0 0)">
          <g id="dollars" transform="translate(-35.3 -88.771)">
            <g id="Group_14634" data-name="Group 14634" transform="translate(45.695 107.659)">
              <path id="Path_60275" data-name="Path 60275" d="M84.88,226.267q0-.339,0-.679v0c0-.849,0-1.7,0-2.547.011-1.668.033-3.336.043-5q0-.048,0-.1t0-.094c0-.378-.023-.757-.055-1.135-.025-.284-.133-.36-.565-.408-.19-.021-.381-.04-.573-.053-.114-.007-.228-.013-.342-.015h0l-.356-.007h-.066l-.347-.007h-.052c-1.007-.018-2.015-.032-3.022-.054-1.641-.036-3.282-.083-4.923-.121q-1.641-.038-3.283-.066c-.373-.007-.747,0-1.12-.01-.787-.022-1.574-.051-2.361-.08-.653-.024-1.306-.059-1.96-.075l-.294-.007h0l-.445-.009h-.018l-.21,0h-.024l-.212,0h-.009l-.208,0h-.7a3.117,3.117,0,0,0-.392.03c-.13.017-.26.04-.387.062a.732.732,0,0,0-.208.064l-.015.008a.381.381,0,0,0-.066.046l-.011.01a.284.284,0,0,0-.038.045.265.265,0,0,0-.021.037.285.285,0,0,0-.026.1c0,.036-.006.071-.01.107-.008.071-.017.142-.026.213l-.014.107q-.007.053-.013.107c-.013.107-.022.213-.025.32q0,.071,0,.141c0,.012,0,.023,0,.035q0,.055,0,.11c0,.01,0,.02,0,.031q0,.059,0,.118c0,.006,0,.012,0,.018,0,.547.005,1.094-.006,1.64q-.054,2.577-.118,5.153h0q-.018.776-.036,1.551c0,.037,0,.071,0,.1,0,.011,0,.021,0,.032a.55.55,0,0,0,.017.086.384.384,0,0,0,.029.074l.013.022.007.011.015.02a.345.345,0,0,0,.066.063l.035.023.039.021q.028.013.059.025l.016.006a2.037,2.037,0,0,0,.469.08l.06,0,.06,0h0l.228.008.079,0,.15.006.1,0,.1,0q.692.027,1.384.053h0q.52.019,1.04.033c2.309.063,4.617.117,6.926.175v0c.814.02,1.628.048,2.443.06q2.956.044,5.912.079h0l1.092.013.38,0h.19q.475,0,.949-.017h.085l.021,0h0l.023,0h0l.021,0h0l.022,0h0l.021,0h0l.022,0h0l.021,0h0l.041-.009h0l.039-.011h0a.406.406,0,0,0,.312-.341A.97.97,0,0,0,84.88,226.267Z" transform="translate(-61.787 -214.966)" fill="#6c9"/>
              <path id="Path_60276" data-name="Path 60276" d="M102.418,240.815a1.708,1.708,0,0,1,.54-.594,1.609,1.609,0,0,1,.745-.281,4.009,4.009,0,0,1,.552-.012q.056,0,.11.009c0-.482,0-.964,0-1.446.006-1.258.021-2.515.028-3.772a2.318,2.318,0,0,1-.431-.038,1.791,1.791,0,0,1-.867-.447,2,2,0,0,1-.575-.852,1.853,1.853,0,0,1-.1-.531c-.946-.018-1.892-.031-2.837-.052-1.468-.033-2.936-.074-4.4-.108q-1.468-.035-2.937-.06c-.334-.006-.668,0-1-.01-.7-.02-1.408-.045-2.112-.07-.585-.021-1.169-.051-1.753-.066q-.547-.014-1.095-.021a1.717,1.717,0,0,1-.053.293c-.03.109-.067.215-.1.323a2.243,2.243,0,0,1-.553.784,1.421,1.421,0,0,1-.865.352c-.117.006-.234.008-.35,0,0,.336,0,.671,0,1.007q-.043,2.1-.1,4.2l.073,0a1.711,1.711,0,0,1,.7.2c.081.04.161.085.241.127a1.18,1.18,0,0,1,.374.294.984.984,0,0,1,.1.151,3.449,3.449,0,0,1,.221.432,1.53,1.53,0,0,1,.092.646c.574.022,1.147.043,1.721.059q3.1.084,6.2.156v0c.728.018,1.457.042,2.185.054q3.017.047,6.034.085A1.687,1.687,0,0,1,102.418,240.815Z" transform="translate(-82.434 -230.691)" fill="#396"/>
              <g id="Group_14633" data-name="Group 14633" transform="translate(4.164 2.693)">
                <g id="Group_14631" data-name="Group 14631" transform="translate(0 2.607)">
                  <path id="Path_60277" data-name="Path 60277" d="M127.174,295.686a1.126,1.126,0,0,1-.278.394.714.714,0,0,1-.435.177,1.392,1.392,0,0,1-.336-.016.9.9,0,0,1-.435-.225,1,1,0,0,1-.289-.428.847.847,0,0,1,.06-.712.858.858,0,0,1,.271-.3.808.808,0,0,1,.374-.141,2.01,2.01,0,0,1,.277-.006.86.86,0,0,1,.35.1c.041.02.081.043.121.064a.592.592,0,0,1,.188.147.493.493,0,0,1,.052.076,1.736,1.736,0,0,1,.111.217.786.786,0,0,1,.018.488C127.21,295.579,127.191,295.632,127.174,295.686Z" transform="translate(-125.35 -294.429)" fill="#6c9"/>
                  <path id="Path_60278" data-name="Path 60278" d="M366.364,301.669a1.127,1.127,0,0,1-.278.394.714.714,0,0,1-.435.177,1.393,1.393,0,0,1-.336-.016.9.9,0,0,1-.435-.225,1,1,0,0,1-.289-.428.847.847,0,0,1,.06-.712.858.858,0,0,1,.271-.3.808.808,0,0,1,.374-.141,2.015,2.015,0,0,1,.277-.006.86.86,0,0,1,.35.1c.041.02.081.042.121.064a.592.592,0,0,1,.188.147.489.489,0,0,1,.052.076,1.731,1.731,0,0,1,.111.217.786.786,0,0,1,.018.488C366.4,301.562,366.381,301.615,366.364,301.669Z" transform="translate(-350.918 -300.071)" fill="#6c9"/>
                </g>
                <g id="Group_14632" data-name="Group 14632" transform="translate(3.993)">
                  <path id="Path_60279" data-name="Path 60279" d="M202.7,253.762a3.691,3.691,0,0,1-1.2,1.552,3.855,3.855,0,0,1-4.548-.023q-.056-.043-.111-.089a3.723,3.723,0,0,1,.416-6.094,4.207,4.207,0,0,1,4.8.725A3.653,3.653,0,0,1,202.7,253.762Z" transform="translate(-195.456 -248.662)" fill="#6c9"/>
                  <path id="Path_60280" data-name="Path 60280" d="M235.435,269.977c0,.128-.006.272-.011.416,0,.118-.019.137-.14.134-.161,0-.322-.015-.482-.027-.1-.007-.119-.036-.118-.136,0-.132.006-.263.01-.4-.056-.015-.1-.029-.149-.04a1.281,1.281,0,0,1-.832-.634,1.626,1.626,0,0,1-.145-.458c-.019-.079.013-.123.094-.148a.4.4,0,0,1,.121-.018c.157,0,.313.009.47.012a.132.132,0,0,1,.131.107,2.612,2.612,0,0,0,.12.3.515.515,0,0,0,.426.28.979.979,0,0,0,.592-.091.584.584,0,0,0,.157-.993,1.389,1.389,0,0,0-.52-.3,5.178,5.178,0,0,1-.991-.473,1.8,1.8,0,0,1-.309-.264.777.777,0,0,1-.174-.784,1.162,1.162,0,0,1,.9-.861c.06-.015.121-.025.194-.04,0-.063.009-.127.011-.192s0-.157.006-.235.025-.12.105-.121c.173,0,.346,0,.519.007a.114.114,0,0,1,.115.109,1.727,1.727,0,0,1,.018.209c0,.078,0,.156-.005.238l.151.048a1.333,1.333,0,0,1,.9,1.086.112.112,0,0,1-.089.15.445.445,0,0,1-.134.016c-.107,0-.214-.014-.321-.017a.172.172,0,0,1-.175-.125,1.242,1.242,0,0,0-.134-.235.731.731,0,0,0-1.073-.036.376.376,0,0,0-.022.488.659.659,0,0,0,.3.216c.132.048.266.086.4.131.18.061.362.115.537.188a1.337,1.337,0,0,1,.827,1.254,1.093,1.093,0,0,1-.221.62,1.308,1.308,0,0,1-.536.427C235.793,269.844,235.626,269.9,235.435,269.977Z" transform="translate(-231.393 -264.072)" fill="#fff"/>
                </g>
              </g>
              <path id="Path_60281" data-name="Path 60281" d="M75.327,208.5c-.215-2.336.23-3.235-.177-5.493-.049-.2-.588-.373-1.026-.365-.308.006-.62.018-.928.044-5.984.507-11.967,1.045-17.956,1.487-.744.073-2.309-1.34-2.459-2.056-.543-2.6-.519,2.375-.537,3.251.2,1.728.332,3.463.479,5.2q.047.557.094,1.114a.305.305,0,0,0,.267.3,4.112,4.112,0,0,0,.993-.008l1.75-.127c2.682-.206,5.363-.436,8.044-.655v0c2.812-.221,5.621-.49,8.43-.744.878-.08,1.758-.157,2.633-.266.28-.021.546-.094.393-1.681Z" transform="translate(-52.244 -201.371)" fill="#2b8958"/>
            </g>
            <g id="Group_14638" data-name="Group 14638" transform="translate(45.359 105.331)">
              <path id="Path_60282" data-name="Path 60282" d="M71.1,175.58q-.036-.337-.073-.675v0c-.092-.844-.186-1.688-.271-2.532-.167-1.66-.323-3.321-.492-4.98l-.01-.1-.009-.093c-.038-.376-.1-.75-.176-1.122-.055-.28-.171-.343-.6-.346-.191,0-.383,0-.575.009-.114,0-.228.012-.342.021h0l-.354.031-.066.006-.345.03-.051,0c-1,.089-2.006.184-3.01.269-1.636.139-3.272.268-4.908.405q-1.636.137-3.271.285c-.372.033-.742.081-1.115.11-.785.062-1.57.117-2.356.173-.652.046-1.305.081-1.957.134l-.293.024h0l-.444.038-.018,0-.209.019-.024,0-.211.02H49.9l-.207.02-.02,0-.2.021-.036,0-.2.021-.032,0-.207.023a3.116,3.116,0,0,0-.387.072c-.128.031-.254.067-.378.1a.731.731,0,0,0-.2.086l-.014.01a.379.379,0,0,0-.06.052l-.01.011a.286.286,0,0,0-.033.048.262.262,0,0,0-.017.039.286.286,0,0,0-.015.1q0,.054,0,.107c0,.072,0,.143,0,.215,0,.036,0,.072,0,.108s0,.072,0,.107c0,.107,0,.215.01.321q.006.07.013.141l0,.035.01.109,0,.03.012.118,0,.018c.055.544.122,1.087.169,1.631q.222,2.568.433,5.136h0q.065.773.13,1.546,0,.055.013.1c0,.011,0,.021.006.031a.556.556,0,0,0,.026.084.385.385,0,0,0,.037.07l.015.021.008.01.017.019a.345.345,0,0,0,.072.055l.037.019.041.017c.019.007.04.013.062.018l.017,0a2.034,2.034,0,0,0,.475.029l.06,0,.06,0h0l.228-.016.079-.005.15-.01.1-.007.1-.007q.691-.047,1.382-.1h0q.519-.037,1.037-.078c2.3-.184,4.6-.377,6.905-.566v0c.812-.067,1.624-.126,2.435-.2q2.944-.272,5.887-.553h0l1.087-.1.378-.038.189-.021q.472-.054.942-.119l.025,0h.006l.022,0h0l.024,0h.005l.021,0h0l.023,0h0l.02,0h0l.022-.005h0l.02-.005h0l.021-.006h0l.02-.006h0l.04-.013h0l.037-.015h0a.406.406,0,0,0,.273-.373A.936.936,0,0,0,71.1,175.58Z" transform="translate(-47.791 -165.436)" fill="#6c9"/>
              <path id="Path_60283" data-name="Path 60283" d="M90.013,192.738a1.708,1.708,0,0,1,.474-.648,1.61,1.61,0,0,1,.71-.359,4.021,4.021,0,0,1,.547-.071c.037,0,.074,0,.111,0-.053-.479-.106-.958-.155-1.438-.128-1.251-.248-2.5-.375-3.754a2.325,2.325,0,0,1-.433.008,1.791,1.791,0,0,1-.909-.352,2,2,0,0,1-.663-.786,1.853,1.853,0,0,1-.157-.517c-.942.083-1.884.171-2.826.251-1.463.124-2.927.24-4.391.363q-1.464.122-2.927.254c-.333.029-.664.071-1,.1-.7.056-1.4.106-2.107.156-.583.042-1.167.074-1.75.122q-.545.044-1.091.1a1.72,1.72,0,0,1-.022.3c-.018.111-.044.221-.066.332a2.243,2.243,0,0,1-.466.839,1.421,1.421,0,0,1-.822.443c-.115.018-.231.033-.348.041.037.334.076.667.1,1q.181,2.094.354,4.189l.073-.006a1.712,1.712,0,0,1,.714.125c.085.031.169.067.254.1a1.179,1.179,0,0,1,.4.252.98.98,0,0,1,.12.139,3.448,3.448,0,0,1,.266.406,1.53,1.53,0,0,1,.161.632c.573-.04,1.145-.08,1.717-.126q3.089-.247,6.177-.506v0c.726-.06,1.453-.114,2.178-.18q3-.276,6.009-.56A1.685,1.685,0,0,1,90.013,192.738Z" transform="translate(-69.925 -183.433)" fill="#396"/>
              <g id="Group_14637" data-name="Group 14637" transform="translate(3.931 2.762)">
                <g id="Group_14635" data-name="Group 14635" transform="translate(0 2.21)">
                  <path id="Path_60284" data-name="Path 60284" d="M117.217,268.568a1.127,1.127,0,0,1-.234.421.714.714,0,0,1-.413.222,1.394,1.394,0,0,1-.336.02.9.9,0,0,1-.457-.177,1.006,1.006,0,0,1-.333-.395.847.847,0,0,1-.016-.714.859.859,0,0,1,.238-.326.808.808,0,0,1,.357-.18,2,2,0,0,1,.275-.036.86.86,0,0,1,.359.063c.043.016.085.034.127.05a.592.592,0,0,1,.2.127.488.488,0,0,1,.06.07,1.735,1.735,0,0,1,.134.2.786.786,0,0,1,.07.483C117.242,268.458,117.228,268.513,117.217,268.568Z" transform="translate(-115.357 -266.286)" fill="#6c9"/>
                  <path id="Path_60285" data-name="Path 60285" d="M355.678,248.969a1.126,1.126,0,0,1-.234.421.714.714,0,0,1-.413.222,1.4,1.4,0,0,1-.336.02.9.9,0,0,1-.457-.177,1,1,0,0,1-.333-.395.847.847,0,0,1-.016-.714.858.858,0,0,1,.238-.326.808.808,0,0,1,.357-.18,2,2,0,0,1,.275-.036.86.86,0,0,1,.359.063c.043.016.085.034.127.05a.592.592,0,0,1,.2.127.491.491,0,0,1,.06.07,1.735,1.735,0,0,1,.134.2.787.787,0,0,1,.07.483C355.7,248.859,355.689,248.914,355.678,248.969Z" transform="translate(-340.237 -247.804)" fill="#6c9"/>
                </g>
                <g id="Group_14636" data-name="Group 14636" transform="translate(3.959)">
                  <path id="Path_60286" data-name="Path 60286" d="M192.263,213.711a3.691,3.691,0,0,1-1.028,1.672,3.855,3.855,0,0,1-4.524.462l-.12-.076a3.723,3.723,0,0,1-.238-6.1,4.207,4.207,0,0,1,4.851.208A3.653,3.653,0,0,1,192.263,213.711Z" transform="translate(-184.871 -208.995)" fill="#6c9"/>
                  <path id="Path_60287" data-name="Path 60287" d="M225.009,230.1c.01.128.023.271.034.414.009.118,0,.139-.124.148-.16.013-.321.019-.482.025-.1,0-.123-.023-.132-.122-.013-.131-.022-.262-.033-.4-.057-.009-.1-.018-.153-.024a1.281,1.281,0,0,1-.895-.541,1.629,1.629,0,0,1-.193-.44c-.027-.076,0-.124.077-.157a.4.4,0,0,1,.119-.031c.156-.015.313-.025.469-.038a.131.131,0,0,1,.142.092,2.615,2.615,0,0,0,.151.283.515.515,0,0,0,.454.233.979.979,0,0,0,.579-.154.584.584,0,0,0,.05-1,1.39,1.39,0,0,0-.549-.246,5.177,5.177,0,0,1-1.036-.365,1.8,1.8,0,0,1-.336-.229.776.776,0,0,1-.256-.761,1.163,1.163,0,0,1,.8-.952c.058-.021.117-.038.188-.061,0-.063,0-.127-.009-.192s-.013-.156-.019-.234.012-.122.092-.132c.172-.021.344-.034.517-.048a.114.114,0,0,1,.126.1,1.723,1.723,0,0,1,.04.206c.01.077.014.155.02.237l.155.031a1.332,1.332,0,0,1,1.012.984.112.112,0,0,1-.073.159.442.442,0,0,1-.132.03c-.107.009-.214.009-.321.018a.172.172,0,0,1-.188-.106,1.241,1.241,0,0,0-.158-.219.731.731,0,0,0-1.071.079.376.376,0,0,0,.03.488.658.658,0,0,0,.318.183c.136.033.274.057.411.088.185.041.372.076.553.129a1.337,1.337,0,0,1,.956,1.159,1.094,1.094,0,0,1-.153.64,1.308,1.308,0,0,1-.487.482C225.351,229.931,225.192,230.008,225.009,230.1Z" transform="translate(-220.715 -224.243)" fill="#fff"/>
                </g>
              </g>
              <path id="Path_60288" data-name="Path 60288" d="M69.815,167.372c-.6-2.215-.958-4.495-1.631-6.687-.072-.194-.19-.223-.615-.163-.3.042-.6.09-.9.152-5.75,1.2-11.495,2.433-17.257,3.571-.714.159-2.408-1.06-2.641-1.754-.846-2.513-.213,2.417-.122,3.289.409,1.691.748,3.4,1.1,5.1l.228,1.095a.3.3,0,0,0,.3.269,3.933,3.933,0,0,0,.963-.123l1.684-.33c2.58-.517,5.155-1.059,7.733-1.588v0c2.7-.548,5.4-1.142,8.1-1.721.843-.182,1.688-.361,2.525-.571.27-.053.659-.222.533-.536Z" transform="translate(-46.34 -160.495)" fill="#2b8958"/>
            </g>
            <g id="Group_14642" data-name="Group 14642" transform="translate(45.3 102)">
              <path id="Path_60289" data-name="Path 60289" d="M69.269,111.592q-.077-.33-.154-.661v0c-.194-.827-.389-1.653-.575-2.481-.367-1.627-.723-3.257-1.091-4.884l-.021-.094-.021-.091c-.084-.369-.193-.732-.311-1.093-.088-.271-.211-.32-.642-.27-.19.022-.38.047-.57.079-.113.019-.225.039-.336.063h0l-.348.073-.065.014-.339.072-.051.011c-.985.21-1.969.425-2.955.632-1.607.336-3.216.662-4.823,1q-1.607.334-3.213.679c-.365.078-.727.17-1.093.244-.772.156-1.545.307-2.317.457-.642.125-1.286.239-1.926.37l-.288.06h0l-.436.092-.017,0-.206.044-.024.005-.207.045-.009,0-.2.045-.019,0-.2.045-.035.008-.194.045-.031.007-.2.048a3.116,3.116,0,0,0-.375.118c-.123.046-.244.1-.363.148a.73.73,0,0,0-.188.109l-.013.011a.377.377,0,0,0-.054.059l-.009.012a.288.288,0,0,0-.027.052.269.269,0,0,0-.012.041.284.284,0,0,0,0,.1c.005.035.01.071.014.106.009.071.016.142.023.214l.01.107q.005.053.011.107c.012.107.026.213.048.318l.029.138.007.034.024.107.007.03.026.116,0,.017c.121.533.252,1.064.365,1.6q.531,2.522,1.052,5.046h0l.316,1.519a1.034,1.034,0,0,0,.026.1l.01.03a.555.555,0,0,0,.036.08.384.384,0,0,0,.045.065l.017.019.009.009.019.016a.345.345,0,0,0,.079.046l.039.014.043.011q.03.007.063.011l.017,0a2.033,2.033,0,0,0,.475-.029l.059-.01.059-.012h0l.224-.043.078-.015.148-.028.1-.018.1-.019q.68-.13,1.36-.262h0q.511-.1,1.02-.2,3.394-.692,6.786-1.4v0c.8-.164,1.6-.322,2.393-.495q2.889-.627,5.776-1.262h0l1.066-.235.371-.084.185-.044q.462-.11.92-.232l.024-.007.006,0,.022-.006h0l.023-.007.005,0,.02-.006h0l.022-.007h0l.019-.007h0l.021-.008h0l.019-.008h0l.02-.008h0l.019-.009h0l.038-.018h0l.035-.019h0a.406.406,0,0,0,.226-.4.96.96,0,0,0-.03-.174Z" transform="translate(-45.3 -102)" fill="#6c9"/>
              <path id="Path_60290" data-name="Path 60290" d="M92.249,134.172a1.708,1.708,0,0,1,.392-.7,1.609,1.609,0,0,1,.662-.442,4.016,4.016,0,0,1,.535-.137c.036-.007.073-.013.109-.016-.111-.469-.221-.938-.328-1.408-.279-1.226-.549-2.454-.826-3.681a2.323,2.323,0,0,1-.429.06,1.791,1.791,0,0,1-.945-.24,2,2,0,0,1-.753-.7,1.854,1.854,0,0,1-.219-.494c-.925.2-1.849.4-2.775.591-1.437.3-2.877.593-4.315.891q-1.438.3-2.874.606c-.327.069-.651.151-.978.217-.69.14-1.382.275-2.073.41-.574.112-1.15.215-1.723.333q-.536.11-1.071.227a1.715,1.715,0,0,1,.014.3c0,.113-.017.225-.026.338a2.244,2.244,0,0,1-.361.889,1.42,1.42,0,0,1-.763.539c-.112.032-.226.061-.34.083.077.327.156.653.225.981q.434,2.057.859,4.115l.071-.014a1.711,1.711,0,0,1,.724.038c.089.021.176.046.264.069a1.179,1.179,0,0,1,.431.2.98.98,0,0,1,.136.124,3.453,3.453,0,0,1,.313.371,1.53,1.53,0,0,1,.236.608c.564-.109,1.127-.218,1.69-.333q3.036-.62,6.071-1.251v0c.714-.147,1.428-.289,2.14-.443q2.949-.637,5.9-1.284A1.687,1.687,0,0,1,92.249,134.172Z" transform="translate(-71.575 -125.023)" fill="#396"/>
              <g id="Group_14641" data-name="Group 14641" transform="translate(4.347 3.641)">
                <g id="Group_14639" data-name="Group 14639" transform="translate(0 1.395)">
                  <path id="Path_60291" data-name="Path 60291" d="M123.509,239.8a1.126,1.126,0,0,1-.182.447.713.713,0,0,1-.383.271,1.394,1.394,0,0,1-.331.06.9.9,0,0,1-.475-.12,1,1,0,0,1-.379-.352.847.847,0,0,1-.1-.707.857.857,0,0,1,.2-.352.809.809,0,0,1,.332-.222,2.006,2.006,0,0,1,.269-.069.859.859,0,0,1,.364.019c.044.01.088.023.133.035a.593.593,0,0,1,.217.1.5.5,0,0,1,.068.062,1.741,1.741,0,0,1,.157.186.786.786,0,0,1,.128.471c0,.057-.008.113-.013.17Z" transform="translate(-121.622 -235.995)" fill="#6c9"/>
                  <path id="Path_60292" data-name="Path 60292" d="M357.844,191.478a1.127,1.127,0,0,1-.181.447.713.713,0,0,1-.383.271,1.394,1.394,0,0,1-.331.06.9.9,0,0,1-.475-.12,1,1,0,0,1-.379-.352.847.847,0,0,1-.1-.707.857.857,0,0,1,.2-.352.809.809,0,0,1,.332-.222,2,2,0,0,1,.269-.069.859.859,0,0,1,.364.019c.044.01.088.023.133.035a.592.592,0,0,1,.217.1.492.492,0,0,1,.068.062,1.738,1.738,0,0,1,.157.186.786.786,0,0,1,.128.471C357.854,191.365,357.848,191.422,357.844,191.478Z" transform="translate(-342.611 -190.422)" fill="#6c9"/>
                </g>
                <g id="Group_14640" data-name="Group 14640" transform="translate(3.825)">
                  <path id="Path_60293" data-name="Path 60293" d="M196.286,170.2a3.69,3.69,0,0,1-.818,1.784,3.855,3.855,0,0,1-4.435,1.007l-.128-.061a3.723,3.723,0,0,1-.975-6.03,4.207,4.207,0,0,1,4.841-.381A3.653,3.653,0,0,1,196.286,170.2Z" transform="translate(-188.775 -165.926)" fill="#6c9"/>
                  <path id="Path_60294" data-name="Path 60294" d="M227.655,187.4c.026.126.056.266.084.407.023.116.012.138-.106.162-.158.032-.317.058-.476.083-.095.015-.125-.008-.146-.106-.028-.128-.054-.258-.082-.393-.058,0-.106,0-.154-.005a1.281,1.281,0,0,1-.954-.429,1.628,1.628,0,0,1-.245-.414c-.036-.072-.015-.123.058-.166a.4.4,0,0,1,.114-.045c.153-.033.307-.062.461-.094a.131.131,0,0,1,.152.074,2.63,2.63,0,0,0,.184.262.515.515,0,0,0,.479.176.978.978,0,0,0,.556-.223.584.584,0,0,0-.072-1,1.389,1.389,0,0,0-.575-.177,5.178,5.178,0,0,1-1.073-.237,1.8,1.8,0,0,1-.361-.187.777.777,0,0,1-.347-.725,1.163,1.163,0,0,1,.682-1.042c.055-.028.112-.052.18-.083-.01-.062-.02-.126-.032-.189s-.032-.153-.047-.23,0-.123.075-.142c.168-.042.338-.075.507-.11a.114.114,0,0,1,.137.08,1.733,1.733,0,0,1,.065.2c.02.075.032.152.049.233l.158.012a1.333,1.333,0,0,1,1.124.854.112.112,0,0,1-.053.167.443.443,0,0,1-.127.046c-.105.021-.212.035-.317.056a.172.172,0,0,1-.2-.082,1.239,1.239,0,0,0-.184-.2.731.731,0,0,0-1.053.208.376.376,0,0,0,.089.48.658.658,0,0,0,.338.143c.139.017.279.024.418.037.189.019.378.03.565.061a1.337,1.337,0,0,1,1.089,1.034,1.093,1.093,0,0,1-.074.654,1.308,1.308,0,0,1-.425.537C227.973,187.194,227.824,187.29,227.655,187.4Z" transform="translate(-223.08 -181.618)" fill="#fff"/>
                </g>
              </g>
            </g>
          </g>
          <path id="Path_60295" data-name="Path 60295" d="M-11.111-1684.459c.317,0,.633-.008.949-.017l.031,0h.024l.03,0,.023,0,.027,0,.021,0h0a.162.162,0,0,1,.024,0,.132.132,0,0,1,.022,0l.022,0,.022,0h0l.04-.009h0l.038-.011h0a.406.406,0,0,0,.311-.341.967.967,0,0,0,.01-.176c0-.226,0-.453,0-.679v0c0-.742,0-1.484,0-2.227a4.335,4.335,0,0,0,.007-1.084q.01-1.252.023-2.5a.262.262,0,0,0,.033-.2l.014,0h0l.023-.007,0,0,.019-.006h0l.021-.008h0l.019-.007h0l.02-.008h0l.019-.008h0a.378.378,0,0,0,.038-.018h0l.035-.019a.406.406,0,0,0,.226-.4.865.865,0,0,0-.03-.174l-.154-.661h0q-.163-.7-.325-1.391-.005-.067-.011-.134a.436.436,0,0,0-.075-.241q-.082-.358-.163-.716c-.367-1.627-.724-3.257-1.091-4.884l-.022-.093c-.007-.031-.014-.061-.021-.092-.084-.368-.193-.732-.311-1.093-.088-.271-.212-.319-.643-.27-.189.022-.38.048-.57.079-.113.018-.225.039-.337.062h0l-.348.074-.065.013-.339.072-.05.011c-.986.211-1.969.426-2.956.632-1.606.337-3.216.662-4.823,1q-1.607.335-3.212.679c-.365.077-.727.17-1.094.244-.771.157-1.544.307-2.317.457-.642.125-1.285.239-1.926.37l-.288.06-.436.092-.017,0-.206.044-.023.005-.208.045-.008,0-.2.045-.019,0-.2.045-.035.008-.194.045-.031.007-.2.048a3.122,3.122,0,0,0-.375.119c-.122.046-.244.1-.363.148a.7.7,0,0,0-.188.109l-.013.011a.412.412,0,0,0-.054.059l-.008.013a.317.317,0,0,0-.027.052.232.232,0,0,0-.013.04.284.284,0,0,0,0,.1c.005.035.01.071.014.106.009.071.016.142.023.214,0,.035.006.071.01.107s.007.071.012.106l0,.017c.012.335.044.749.084,1.171,0,.051,0,.1.009.154s.008.094.012.14c0,.012,0,.023,0,.034l.011.11,0,.031c0,.039.007.078.012.118,0,.005,0,.012,0,.017.055.544.122,1.087.168,1.632l.034.389c0,.212,0,.383-.006.492.2,1.728.331,3.463.479,5.2l.095,1.115a.318.318,0,0,0,.014.091q-.006.24-.011.479c0,.036,0,.071,0,.1l0,.031a.6.6,0,0,0,.017.086.359.359,0,0,0,.029.074l.014.023.006.011.015.02a.364.364,0,0,0,.066.063l.035.022c.013.008.026.014.04.022a.578.578,0,0,0,.059.024l.016.005a1.98,1.98,0,0,0,.47.08c.04,0,.08,0,.12.005h0l.228.008.079,0,.15.006.2.007c.462.018.923.037,1.384.053.347.013.693.024,1.039.033q3.463.094,6.926.176v0c.814.02,1.628.048,2.443.059q2.955.043,5.912.079h0l1.092.013c.189,0,.38,0,.57,0m0,1.5H-11.3c-.134,0-.267,0-.4,0l-.539-.006-.541-.006h-.012c-2.149-.026-4.084-.052-5.916-.079-.551-.008-1.106-.023-1.642-.038h-.005l-.81-.019-1.733-.043c-1.7-.042-3.464-.085-5.2-.133-.385-.01-.765-.023-1.053-.034q-.507-.018-1.016-.039l-.367-.014-.055,0h-.029l-.073,0-.047,0-.154-.006-.351-.013c-.047,0-.094,0-.14-.007a3.331,3.331,0,0,1-.824-.154l-.029-.01a2.1,2.1,0,0,1-.213-.088l-.054-.027c-.025-.013-.073-.038-.131-.074-.031-.019-.062-.039-.093-.061l-.05-.036a1.872,1.872,0,0,1-.321-.307l-.026-.032-.091-.106-.093-.178a1.864,1.864,0,0,1-.148-.38,2.09,2.09,0,0,1-.058-.3l-.008-.082c-.008-.095-.008-.175-.008-.228v-.036l.008-.335c0-.035-.007-.069-.009-.1l-.092-1.082q-.045-.531-.089-1.063c-.111-1.345-.227-2.735-.385-4.086l-.012-.1,0-.1c0-.093,0-.232,0-.4l-.027-.316c-.028-.326-.063-.649-.1-.99-.022-.2-.044-.4-.064-.606l0-.023c0-.043-.009-.086-.013-.128l-.02-.208c0-.018,0-.037,0-.055s0-.05-.006-.074c-.005-.06-.009-.121-.012-.185-.043-.462-.07-.839-.083-1.149q0-.04-.008-.079v-.008c0-.044-.008-.085-.012-.125s-.011-.107-.018-.16v-.009c0-.019,0-.038-.008-.057v-.005a1.781,1.781,0,0,1,.018-.631,1.739,1.739,0,0,1,.089-.294,1.807,1.807,0,0,1,.142-.28l.01-.016.024-.041.043-.059a1.923,1.923,0,0,1,.249-.276l.062-.054,0,0a2.194,2.194,0,0,1,.567-.339c.136-.058.27-.114.414-.168a4.579,4.579,0,0,1,.553-.174l.113-.027.088-.021.045-.01.2-.047.031-.007.1-.023.072-.016.015,0,.083-.018.1-.022.04-.009.012,0,.171-.037.053-.011.016,0,.2-.043.065-.014.416-.088.249-.052.044-.009c.4-.083.8-.158,1.193-.231.25-.047.5-.094.751-.143.751-.146,1.527-.3,2.306-.455.184-.037.369-.08.565-.125.167-.039.339-.078.516-.116,1.019-.218,2.116-.451,3.217-.681l2.052-.423c.909-.187,1.848-.38,2.77-.573.65-.136,1.31-.278,1.949-.416l1-.215.06-.013.278-.059.123-.026.168-.036.18-.038.16-.032c.08-.015.162-.029.244-.043.187-.031.389-.059.634-.088h.006a3.615,3.615,0,0,1,.415-.027,1.823,1.823,0,0,1,1.825,1.323c.153.467.263.855.345,1.218l.014.061.03.132c.184.816.368,1.645.546,2.447s.361,1.626.544,2.438q.059.263.119.525a2.065,2.065,0,0,1,.151.635l0,.027.029.126h0l.424,1.821a2.255,2.255,0,0,1,.068.454,1.9,1.9,0,0,1-.3,1.13v.87h-.02v.009h-.173q-.006.6-.011,1.2a6.092,6.092,0,0,1-.008,1.256c0,.547,0,1.1,0,1.64v.466c0,.225,0,.454,0,.682v.011a2.32,2.32,0,0,1-.035.438l0,.009a1.893,1.893,0,0,1-1.347,1.495l-.214.065H-9.62l-.038.011H-9.72l-.044.009H-9.8l-.029,0-.08.012h-.022l-.02,0-.168.006c-.359.01-.681.016-.983.018Z" transform="translate(43 1715.229)" fill="rgba(51,153,102,0.23)"/>
        </g>
      </g>
    </g>
  </g>
</svg>
