<svg xmlns="http://www.w3.org/2000/svg" version="1.1" xmlns:xlink="http://www.w3.org/1999/xlink" width="512" height="512" x="0" y="0" viewBox="0 0 512 512" style="enable-background:new 0 0 512 512" xml:space="preserve" class=""><g><path fill="#66cc99" d="M457.728 399.799c.001-3.971-.004-7.943-.011-11.914v-.029c-.024-14.906-.075-29.811.021-44.715.189-29.29.581-58.577.758-87.868l.01-1.683.01-1.643c.036-6.635-.396-13.285-.973-19.921-.434-4.991-2.344-6.315-9.913-7.17-3.329-.376-6.693-.703-10.061-.923a138.758 138.758 0 0 0-6.004-.268h-.016c-2.082-.045-4.163-.088-6.245-.129l-1.167-.023c-2.029-.04-4.057-.078-6.086-.115l-.907-.016c-17.686-.321-35.373-.557-53.057-.946-28.816-.633-57.629-1.453-86.444-2.126-19.214-.449-38.43-.807-57.645-1.159-6.555-.12-13.115.019-19.665-.167-13.82-.392-27.636-.895-41.451-1.399-11.472-.418-22.937-1.028-34.412-1.324a1780.07 1780.07 0 0 0-5.165-.126h-.003c-2.605-.06-5.21-.115-7.816-.162l-.311-.006c-1.231-.022-2.461-.042-3.692-.061l-.43-.006c-1.241-.018-2.483-.035-3.724-.049l-.154-.002a888.283 888.283 0 0 0-3.65-.034l-.347-.003a843.995 843.995 0 0 0-3.558-.019l-.63-.002c-1.167-.003-2.333-.005-3.5-.004l-.563.001c-1.218.002-2.435.006-3.652.014-2.297.014-4.599.229-6.886.534s-4.558.702-6.794 1.08c-1.434.243-2.654.616-3.647 1.119-.09.046-.179.093-.265.141a6.696 6.696 0 0 0-1.351.979 5.004 5.004 0 0 0-.668.782 4.681 4.681 0 0 0-.376.655 4.997 4.997 0 0 0-.453 1.756 69.913 69.913 0 0 1-.175 1.876c-.133 1.25-.295 2.499-.46 3.747-.083.624-.166 1.248-.247 1.873-.081.624-.16 1.248-.234 1.873-.221 1.873-.394 3.747-.434 5.625a410.23 410.23 0 0 0-.045 2.48l-.008.609c-.009.643-.018 1.287-.024 1.93l-.005.536c-.007.693-.012 1.386-.016 2.08l-.002.313c-.055 9.598.089 19.201-.112 28.796-.631 30.16-1.352 60.318-2.065 90.476v.02c-.215 9.079-.429 18.158-.639 27.236-.015.646-.003 1.251.04 1.816.014.189.032.373.054.553.064.54.161 1.042.294 1.509s.302.899.512 1.298a5.938 5.938 0 0 0 .61.934c.326.406.711.772 1.161 1.101.193.141.398.276.616.404s.448.251.691.367a11.527 11.527 0 0 0 1.326.533c2.014.683 4.705 1.108 8.24 1.397.349.029.7.045 1.051.057.352.013.704.021 1.055.034l.047.002 4.002.149 1.394.053 2.64.101 1.706.066 1.749.068c8.101.315 16.201.639 24.302.931h.002c6.086.22 12.172.421 18.259.587 40.534 1.105 81.073 2.057 121.61 3.071l.001-.049c14.296.358 28.591.838 42.887 1.049a38221.887 38221.887 0 0 0 123.021 1.614 549.328 549.328 0 0 0 10.007.026c5.56-.033 11.117-.142 16.662-.305.148-.004.294-.01.439-.016l.11-.005.397-.019.033-.002a49.366 49.366 0 0 0 .513-.033c.125-.009.248-.018.37-.029l.042-.003c.136-.012.271-.024.404-.038l.07-.007.36-.04.038-.004.392-.05.039-.005.361-.053.028-.004c.129-.02.257-.042.383-.064l.005-.001c.124-.022.246-.045.367-.069l.018-.004c.246-.049.485-.103.716-.16l.009-.002c.233-.058.459-.12.677-.187l.003-.001c3.258-.992 4.893-2.926 5.474-5.995.188-1.02.172-2.061.172-3.094z" opacity="1" data-original="#66cc99" class=""></path><path fill="#339966" d="M403.132 379.132c2.345-4.232 5.488-7.711 9.489-10.432 3.966-2.697 8.327-4.439 13.075-4.93 3.205-.332 6.464-.326 9.69-.213.653.023 1.298.076 1.937.155-.032-8.464-.053-16.928-.011-25.39.109-22.08.369-44.157.496-66.236-2.533-.011-5.061-.187-7.569-.672-5.839-1.127-10.816-3.904-15.217-7.855-4.628-4.155-8.104-9.08-10.103-14.966-1.068-3.144-1.664-6.253-1.774-9.324-16.605-.317-33.212-.549-49.816-.918-25.779-.572-51.556-1.299-77.334-1.905-17.189-.404-34.379-.732-51.57-1.056-5.864-.11-11.732-.006-17.592-.171-12.363-.347-24.724-.787-37.083-1.227-10.263-.365-20.521-.889-30.786-1.153-6.404-.165-12.813-.299-19.219-.377a30.133 30.133 0 0 1-.935 5.137c-.519 1.911-1.184 3.783-1.782 5.673-2.445 5.172-5.298 10.023-9.714 13.771-4.379 3.716-9.423 5.894-15.187 6.184-2.05.103-4.101.147-6.147.06.02 5.894.068 11.788-.053 17.679-.506 24.601-1.091 49.201-1.67 73.8.427.011.853.023 1.279.038 4.34.151 8.364 1.618 12.227 3.523 1.431.706 2.827 1.485 4.24 2.227 2.507 1.315 4.77 2.952 6.571 5.155.679.831 1.318 1.718 1.828 2.659 1.355 2.501 2.899 4.945 3.879 7.593a26.864 26.864 0 0 1 1.623 11.334c10.072.383 20.144.756 30.219 1.029 36.263.983 72.529 1.838 108.795 2.745l.001-.04c12.789.32 25.578.742 38.367.94 35.318.549 70.636 1.041 105.953 1.49.033-4.879 1.307-9.66 3.893-14.327z" opacity="1" data-original="#339966" class=""></path><g fill="#6c9"><path d="M157.378 316.511c-1.228 2.598-2.661 5.035-4.88 6.918-2.2 1.867-4.734 2.961-7.63 3.107-1.971.099-3.946.093-5.896-.284-2.934-.566-5.434-1.961-7.644-3.946-2.325-2.087-4.071-4.561-5.076-7.518-1.464-4.308-1.169-8.487 1.055-12.499a15.067 15.067 0 0 1 4.767-5.241c1.992-1.355 4.183-2.23 6.568-2.477 1.61-.167 3.247-.164 4.868-.107 2.18.076 4.202.813 6.143 1.77.719.355 1.42.746 2.13 1.119 1.26.661 2.396 1.483 3.301 2.59.341.417.662.863.918 1.336.681 1.256 1.456 2.484 1.949 3.814 1.036 2.797 1.105 5.684.322 8.57-.26.958-.594 1.898-.895 2.848zM396.569 322.494c-1.228 2.598-2.661 5.035-4.88 6.918-2.2 1.867-4.734 2.961-7.63 3.107-1.971.099-3.946.093-5.897-.284-2.933-.566-5.434-1.961-7.644-3.946-2.325-2.087-4.071-4.561-5.076-7.518-1.464-4.308-1.169-8.487 1.055-12.499a15.067 15.067 0 0 1 4.767-5.241c1.992-1.355 4.183-2.23 6.568-2.477 1.61-.167 3.247-.164 4.868-.107 2.18.076 4.202.813 6.143 1.77.719.355 1.42.746 2.13 1.119 1.26.661 2.396 1.483 3.301 2.59.341.417.662.863.918 1.336.681 1.256 1.456 2.484 1.949 3.814 1.036 2.797 1.105 5.684.322 8.57-.259.958-.593 1.898-.894 2.848z" fill="#66cc99" opacity="1" data-original="#66cc99" class=""></path></g><path fill="#66cc99" d="M322.659 338.213c-4.426 10.628-11.548 20.184-21.084 27.254-23.139 17.154-56.935 17.172-79.85-.413a74.874 74.874 0 0 1-1.952-1.56c-33.704-28.011-33.377-85.578 7.296-107.009 26.398-13.909 63.485-9.033 84.302 12.731 17.893 18.709 20.74 46.298 11.288 68.997z" opacity="1" data-original="#66cc99" class=""></path><path fill="#ffffff" d="M266.43 352.356c-.056 2.249-.106 4.775-.187 7.3-.066 2.072-.342 2.41-2.45 2.355-2.824-.073-5.646-.265-8.463-.476-1.675-.125-2.097-.639-2.078-2.387.026-2.309.108-4.618.168-7.054-.982-.265-1.795-.506-2.619-.703-6.508-1.559-11.263-5.412-14.605-11.126-1.457-2.49-1.882-5.31-2.54-8.045-.333-1.384.235-2.165 1.646-2.603a6.98 6.98 0 0 1 2.131-.322c2.752.038 5.503.158 8.255.219 1.281.029 1.905.696 2.308 1.878.605 1.774 1.293 3.533 2.111 5.219 1.5 3.094 4.266 4.475 7.486 4.916 3.591.492 7.23.065 10.39-1.599 7.56-3.979 8.492-11.363 2.762-17.441-2.46-2.609-5.812-3.998-9.129-5.319-5.986-2.385-12.025-4.698-17.409-8.312a31.697 31.697 0 0 1-5.433-4.631c-3.683-3.939-4.477-8.687-3.047-13.768 2.282-8.108 7.645-13.101 15.802-15.113 1.05-.259 2.118-.444 3.405-.71.068-1.105.157-2.233.201-3.363.055-1.375.06-2.753.109-4.128.054-1.517.442-2.106 1.849-2.128 3.036-.048 6.075.051 9.112.129 1.202.031 1.851.802 2.016 1.912.18 1.214.288 2.446.319 3.673.035 1.367-.053 2.737-.089 4.183 1.033.327 1.839.593 2.652.837 9.635 2.893 13.391 10.024 15.828 19.073.366 1.36-.201 2.243-1.571 2.641-.749.218-1.569.296-2.352.275-1.882-.051-3.761-.24-5.644-.294-1.555-.045-2.488-.66-3.076-2.197-.559-1.461-1.475-2.804-2.35-4.122-4.089-6.157-14.408-5.464-18.844-.632-2.197 2.393-2.408 5.994-.39 8.569a11.57 11.57 0 0 0 5.211 3.785c2.309.839 4.678 1.511 7.006 2.299 3.152 1.067 6.351 2.025 9.421 3.293 8.855 3.658 15.026 12.938 14.512 22.019-.227 4.005-1.416 7.695-3.873 10.887-2.51 3.261-5.568 5.909-9.412 7.498-2.861 1.181-5.781 2.228-9.139 3.513z" opacity="1" data-original="#ffffff" class=""></path><path fill="#2b8958" d="M457.549 326.486c-3.773-41.017 4.042-56.81-3.112-96.443-.859-3.527-10.321-6.555-18.02-6.402-5.403.107-10.885.312-16.288.769-105.077 8.909-210.118 18.341-315.281 26.115-13.063 1.28-40.551-23.527-43.182-36.106-9.536-45.583-9.118 41.695-9.422 57.085 3.554 30.343 5.824 60.809 8.418 91.247.549 6.522 1.098 13.044 1.651 19.565.026 2.729 1.932 4.874 4.681 5.309 4.738 1.035 11.931.244 17.433-.134 10.243-.747 20.487-1.472 30.729-2.233 47.099-3.614 94.164-7.662 141.247-11.494l-.003-.035c49.381-3.887 98.689-8.609 148.019-13.057 15.419-1.405 30.87-2.75 46.231-4.666 4.924-.361 9.591-1.655 6.899-29.52z" opacity="1" data-original="#2b8958"></path><path fill="#66cc99" d="M455.551 338.602c-.424-3.949-.853-7.897-1.283-11.845l-.003-.029c-1.616-14.818-3.258-29.633-4.755-44.461-2.941-29.143-5.679-58.304-8.632-87.446l-.17-1.675-.166-1.634c-.673-6.601-1.813-13.166-3.095-19.703-.965-4.916-3.005-6.029-10.622-6.07-3.351-.018-6.73.016-10.102.157-2.004.084-4.006.205-5.998.375l-.016.001c-2.075.177-4.149.357-6.223.539l-1.163.102c-2.021.177-4.042.356-6.063.535l-.904.081c-17.619 1.57-35.23 3.224-52.855 4.726-28.719 2.448-57.454 4.711-86.177 7.119-19.152 1.606-38.296 3.303-57.439 5.005-6.53.581-13.037 1.42-19.57 1.935-13.782 1.087-27.573 2.062-41.363 3.037-11.451.809-22.916 1.428-34.356 2.359-1.716.14-3.433.282-5.149.426h-.003c-2.597.218-5.193.442-7.789.674l-.31.028c-1.226.11-2.452.221-3.677.334l-.428.04c-1.236.115-2.472.231-3.708.349l-.153.015c-1.211.116-2.422.235-3.633.356l-.346.034c-1.18.118-2.36.239-3.54.361l-.627.065c-1.16.121-2.32.244-3.48.37l-.559.061c-1.21.132-2.421.266-3.63.404-2.282.259-4.548.718-6.79 1.266-2.241.548-4.457 1.184-6.639 1.799-1.4.395-2.573.896-3.506 1.502a7.722 7.722 0 0 0-.249.168 6.677 6.677 0 0 0-1.238 1.117c-.227.269-.42.552-.581.849-.12.223-.222.453-.304.692a5.023 5.023 0 0 0-.263 1.795c.018.627.026 1.255.026 1.883.001 1.257-.026 2.516-.057 3.775-.015.63-.032 1.259-.046 1.888s-.026 1.258-.033 1.887c-.02 1.886.009 3.768.169 5.639a411.907 411.907 0 0 0 .459 4.999l.052.533c.067.69.136 1.38.206 2.069l.032.311c.971 9.549 2.139 19.082 2.964 28.643 2.594 30.055 5.099 60.117 7.611 90.178l.002.02c.756 9.05 1.513 18.099 2.274 27.149.054.644.131 1.244.234 1.802.034.186.072.367.112.544.122.53.272 1.019.454 1.469s.397.861.648 1.236a5.997 5.997 0 0 0 .404.536 5.834 5.834 0 0 0 1.574 1.299c.207.12.425.232.655.336s.472.201.726.291c.339.119.699.226 1.083.321.096.024.193.046.292.069 2.076.464 4.796.599 8.342.508.35-.009.701-.03 1.052-.055s.702-.054 1.053-.079l.047-.003c1.331-.094 2.663-.187 3.995-.279l1.392-.096 2.635-.182 1.703-.117 1.746-.119c8.088-.552 16.176-1.095 24.262-1.67h.002c6.074-.432 12.147-.881 18.217-1.366 40.42-3.23 80.829-6.615 121.243-9.936l-.004-.048c14.252-1.171 28.517-2.22 42.753-3.537 34.459-3.188 68.912-6.428 103.36-9.709l.045-.004c6.362-.606 12.723-1.213 19.085-1.822a569.098 569.098 0 0 0 9.953-1.043 714.834 714.834 0 0 0 16.968-2.145l.108-.016.392-.062.032-.005.413-.071.093-.017.364-.068.041-.008a19.832 19.832 0 0 0 .819-.174 31.277 31.277 0 0 0 .813-.201l.027-.007c.126-.034.251-.069.374-.105l.005-.001c.121-.035.24-.071.357-.108l.018-.006c.239-.075.471-.154.695-.236l.009-.003c.226-.083.443-.169.653-.258l.003-.001c3.133-1.335 4.553-3.432 4.802-6.545.085-1.036-.041-2.069-.151-3.096z" opacity="1" data-original="#66cc99" class=""></path><path fill="#339966" d="M399.06 323.884c1.88-4.458 4.633-8.253 8.321-11.386 3.655-3.105 7.805-5.303 12.474-6.299 3.151-.672 6.392-1.014 9.612-1.247a22.175 22.175 0 0 1 1.942-.053c-.936-8.412-1.86-16.825-2.723-25.244-2.25-21.965-4.35-43.944-6.581-65.911-2.52.259-5.052.354-7.597.141-5.926-.497-11.171-2.727-15.969-6.185-5.045-3.637-9.027-8.162-11.644-13.801-1.398-3.012-2.322-6.039-2.76-9.081-16.544 1.458-33.081 3.002-49.629 4.408-25.693 2.184-51.399 4.215-77.095 6.366-17.134 1.434-34.261 2.944-51.387 4.458-5.842.517-11.665 1.247-17.51 1.709-12.33.975-24.666 1.858-37.002 2.741-10.244.733-20.498 1.308-30.733 2.142a1411.2 1411.2 0 0 0-19.149 1.678 30.192 30.192 0 0 1-.381 5.207c-.312 1.956-.773 3.888-1.166 5.831-1.879 5.404-4.197 10.532-8.188 14.73-3.957 4.163-8.739 6.867-14.44 7.771-2.027.321-4.062.585-6.106.717.649 5.858 1.327 11.713 1.836 17.583 2.124 24.515 4.17 49.036 6.222 73.556.426-.035.851-.068 1.276-.099 4.331-.313 8.489.715 12.534 2.196 1.499.549 2.969 1.175 4.454 1.761 2.633 1.04 5.058 2.425 7.084 4.423.764.754 1.494 1.567 2.102 2.449 1.614 2.342 3.411 4.607 4.668 7.135a26.87 26.87 0 0 1 2.824 11.096c10.055-.695 20.109-1.4 30.156-2.205 36.16-2.896 72.311-5.919 108.465-8.891l-.003-.04c12.75-1.048 25.511-1.995 38.248-3.163 35.175-3.226 70.343-6.51 105.506-9.836-.49-4.851.265-9.74 2.339-14.657z" opacity="1" data-original="#339966" class=""></path><g fill="#6c9"><path d="M148.023 287.87c-.944 2.715-2.108 5.291-4.113 7.4-1.988 2.091-4.39 3.45-7.254 3.904-1.949.309-3.913.513-5.893.347-2.977-.25-5.612-1.37-8.022-3.107-2.534-1.827-4.535-4.101-5.85-6.933-1.915-4.127-2.068-8.313-.286-12.54a15.068 15.068 0 0 1 4.18-5.72c1.836-1.56 3.921-2.664 6.266-3.164 1.583-.338 3.211-.51 4.829-.626 2.176-.157 4.265.359 6.297 1.103.753.276 1.492.59 2.238.885 1.323.522 2.541 1.218 3.559 2.222.384.379.751.787 1.056 1.23.811 1.176 1.713 2.315 2.345 3.584 1.328 2.67 1.705 5.533 1.235 8.486-.158.983-.39 1.953-.587 2.929zM386.484 268.271c-.944 2.715-2.108 5.291-4.113 7.4-1.988 2.091-4.39 3.45-7.254 3.904-1.949.309-3.913.513-5.893.347-2.977-.25-5.612-1.37-8.022-3.107-2.534-1.827-4.535-4.101-5.85-6.933-1.916-4.127-2.068-8.313-.286-12.54a15.068 15.068 0 0 1 4.18-5.72c1.836-1.56 3.921-2.664 6.266-3.164 1.583-.338 3.211-.51 4.829-.626 2.176-.157 4.265.359 6.297 1.103.753.276 1.492.59 2.238.885 1.323.522 2.541 1.218 3.559 2.222.384.379.751.787 1.056 1.23.811 1.176 1.713 2.315 2.345 3.584 1.328 2.67 1.705 5.533 1.235 8.486-.158.982-.389 1.953-.587 2.929z" fill="#66cc99" opacity="1" data-original="#66cc99" class=""></path></g><path fill="#66cc99" d="M314.676 291.795c-3.265 11.04-9.326 21.302-18.052 29.35-21.174 19.528-54.775 23.155-79.437 8.119a77.327 77.327 0 0 1-2.108-1.342c-36.503-24.251-42.327-81.524-4.176-107.176 24.761-16.649 62.157-15.762 85.179 3.653 19.79 16.69 25.567 43.818 18.594 67.396z" opacity="1" data-original="#66cc99" class=""></path><path fill="#ffffff" d="M260.279 311.863c.184 2.242.404 4.759.594 7.278.156 2.067-.083 2.432-2.185 2.603-2.815.229-5.642.339-8.466.431-1.679.054-2.153-.412-2.321-2.151-.221-2.299-.386-4.603-.586-7.031-1.005-.159-1.839-.311-2.679-.419-6.638-.855-11.776-4.178-15.71-9.503-1.714-2.321-2.438-5.079-3.385-7.727-.479-1.34.003-2.178 1.359-2.764a7.002 7.002 0 0 1 2.084-.548c2.74-.257 5.488-.431 8.231-.664 1.277-.108 1.969.489 2.495 1.62.791 1.699 1.663 3.375 2.656 4.963 1.822 2.916 4.72 3.993 7.969 4.088 3.623.106 7.195-.708 10.16-2.699 7.091-4.764 7.23-12.205.884-17.636-2.724-2.331-6.206-3.354-9.645-4.314-6.207-1.732-12.458-3.387-18.197-6.405a31.65 31.65 0 0 1-5.896-4.024c-4.083-3.523-5.379-8.159-4.5-13.364 1.403-8.305 6.202-13.842 14.097-16.715 1.016-.37 2.059-.667 3.31-1.07-.051-1.105-.083-2.237-.159-3.365-.093-1.373-.234-2.743-.333-4.116-.108-1.514.215-2.141 1.611-2.313 3.014-.372 6.046-.598 9.074-.845 1.199-.098 1.926.6 2.209 1.686a30.27 30.27 0 0 1 .71 3.618c.18 1.355.24 2.727.358 4.169 1.062.214 1.892.393 2.726.549 9.889 1.848 14.385 8.536 17.774 17.273.509 1.313.039 2.251-1.28 2.793-.722.297-1.528.462-2.309.524-1.877.15-3.765.163-5.643.311-1.551.122-2.544-.39-3.293-1.856-.712-1.393-1.766-2.63-2.777-3.847-4.723-5.685-14.909-3.894-18.803 1.385-1.928 2.614-1.754 6.216.527 8.561a11.555 11.555 0 0 0 5.586 3.206c2.385.587 4.812 1.003 7.211 1.538 3.247.724 6.531 1.335 9.719 2.268 9.195 2.691 16.322 11.259 16.781 20.343.202 4.006-.586 7.802-2.688 11.238-2.147 3.51-4.905 6.47-8.557 8.46-2.72 1.481-5.512 2.835-8.713 4.471z" opacity="1" data-original="#ffffff" class=""></path><path fill="#2b8958" d="M458.53 281.26c-10.505-38.896-16.827-78.925-28.643-117.417-1.268-3.399-3.338-3.911-10.797-2.861-5.235.737-10.533 1.579-15.725 2.663-100.963 21.098-201.827 42.711-303.013 62.694-12.531 2.794-42.275-18.615-46.376-30.789-14.861-44.118-3.734 42.437-2.14 57.744 7.178 29.695 13.125 59.661 19.384 89.561 1.334 6.407 2.669 12.815 4.007 19.221.361 2.705 2.475 4.611 5.198 4.722 4.729.475 11.618-1.15 16.916-2.167 9.857-1.936 19.718-3.85 29.572-5.8 45.302-9.081 90.517-18.588 135.776-27.883l-.007-.034c47.485-9.618 94.795-20.055 142.162-30.224 14.803-3.193 29.645-6.33 44.329-10.024 4.737-.933 11.571-3.898 9.357-9.406z" opacity="1" data-original="#2b8958"></path><path fill="#66cc99" d="M466.165 270.42a6717.83 6717.83 0 0 0-2.708-11.603l-.007-.028c-3.398-14.513-6.822-29.021-10.103-43.559-6.448-28.573-12.696-57.188-19.155-85.758l-.371-1.642-.362-1.602c-1.467-6.471-3.393-12.85-5.458-19.183-1.553-4.763-3.713-5.621-11.279-4.739-3.328.388-6.678.831-10.009 1.379a137.16 137.16 0 0 0-5.908 1.099l-.015.003c-2.038.427-4.075.857-6.112 1.288l-1.142.242c-1.985.421-3.97.842-5.954 1.265l-.887.189c-17.299 3.692-34.581 7.465-51.894 11.091-28.211 5.907-56.461 11.632-84.681 17.5-18.816 3.912-37.614 7.915-56.41 11.922-6.412 1.367-12.77 2.988-19.192 4.29-13.549 2.747-27.121 5.385-40.691 8.022-11.269 2.19-22.574 4.192-33.818 6.502-1.687.347-3.374.695-5.06 1.046l-.003.001c-2.551.531-5.101 1.068-7.65 1.612l-.304.065c-1.204.257-2.407.516-3.61.777l-.42.091a906.77 906.77 0 0 0-3.638.796l-.15.033c-1.188.262-2.376.527-3.563.793l-.339.076c-1.157.26-2.314.523-3.47.787l-.615.141c-1.137.261-2.274.524-3.41.789l-.548.128c-1.186.278-2.371.557-3.555.84-2.234.534-4.428 1.264-6.586 2.079s-4.281 1.715-6.373 2.59c-1.342.561-2.446 1.2-3.299 1.915a7.418 7.418 0 0 0-.226.197 6.627 6.627 0 0 0-1.094 1.259c-.192.295-.35.599-.473.913a4.733 4.733 0 0 0-.218.723 4.993 4.993 0 0 0-.043 1.813c.094.62.177 1.243.254 1.866.153 1.247.279 2.5.4 3.754.061.627.121 1.254.183 1.88s.127 1.252.196 1.877c.209 1.874.465 3.739.851 5.577.17.809.343 1.618.517 2.426l.13.595c.137.629.274 1.257.413 1.886l.117.523c.15.677.302 1.353.455 2.029l.069.305c2.12 9.361 4.433 18.683 6.41 28.074 6.214 29.52 12.339 59.057 18.473 88.594l.004.02c1.846 8.892 3.693 17.783 5.544 26.674.132.633.28 1.219.451 1.76.057.18.116.356.177.526.185.511.393.978.628 1.403s.498.807.793 1.149a5.943 5.943 0 0 0 .805.771c.409.322.867.591 1.38.81.22.094.45.179.691.254.241.076.493.143.756.201a11.385 11.385 0 0 0 1.412.22c2.117.21 4.834.014 8.343-.505.346-.051.692-.115 1.037-.182s.69-.139 1.035-.206l.046-.009c1.31-.254 2.621-.508 3.931-.76l1.37-.264 2.594-.499 1.676-.322 1.719-.33c7.962-1.527 15.925-3.046 23.882-4.595h.002a2062.725 2062.725 0 0 0 17.918-3.562c39.732-8.1 79.434-16.352 119.148-24.542l-.01-.048c14.005-2.888 28.039-5.657 42.011-8.687a37985.666 37985.666 0 0 0 120.192-26.281 540.677 540.677 0 0 0 9.753-2.241 706.715 706.715 0 0 0 16.16-4.07 36.752 36.752 0 0 0 .912-.253l.031-.009.401-.12.091-.028.354-.112.04-.013c.13-.042.258-.085.385-.128l.066-.023.342-.12.036-.013c.126-.045.249-.091.371-.138l.037-.014c.115-.044.228-.089.34-.134l.026-.01c.121-.049.241-.099.358-.149l.004-.002c.116-.05.23-.1.341-.15l.017-.008c.229-.104.449-.21.661-.318l.008-.004c.214-.109.42-.221.617-.335l.003-.002c2.949-1.704 4.104-3.958 3.975-7.079-.045-1.034-.296-2.045-.529-3.051z" opacity="1" data-original="#66cc99" class=""></path><path fill="#339966" d="M408.307 262.65c1.326-4.653 3.6-8.754 6.881-12.31 3.252-3.525 7.106-6.209 11.619-7.763 3.046-1.049 6.223-1.781 9.39-2.402a21.96 21.96 0 0 1 1.922-.288 2922.528 2922.528 0 0 1-5.759-24.728c-4.893-21.531-9.638-43.094-14.512-64.629-2.47.562-4.972.963-7.524 1.059-5.943.224-11.419-1.354-16.6-4.206-5.448-2.999-9.949-7.01-13.229-12.29-1.752-2.82-3.036-5.714-3.839-8.68-16.246 3.45-32.474 6.984-48.731 10.385-25.239 5.279-50.511 10.407-75.758 15.653-16.834 3.498-33.652 7.07-50.47 10.647-5.737 1.22-11.429 2.65-17.174 3.816-12.121 2.461-24.26 4.831-36.398 7.201-10.08 1.968-20.189 3.78-30.248 5.847a1417.6 1417.6 0 0 0-18.805 3.984c.234 1.7.317 3.44.252 5.215-.072 1.979-.296 3.953-.451 5.929-1.211 5.591-2.891 10.962-6.344 15.613-3.424 4.611-7.843 7.875-13.393 9.462-1.973.564-3.962 1.072-5.974 1.451 1.354 5.736 2.735 11.467 3.951 17.232 5.077 24.077 10.076 48.17 15.082 72.262.418-.086.837-.17 1.255-.252 4.262-.835 8.513-.318 12.707.663 1.554.363 3.089.807 4.634 1.209 2.74.713 5.314 1.795 7.567 3.533.85.655 1.673 1.375 2.383 2.176 1.886 2.129 3.943 4.16 5.498 6.517a26.868 26.868 0 0 1 4.147 10.672c9.897-1.908 19.792-3.824 29.667-5.839 35.544-7.253 71.062-14.63 106.591-21.957l-.008-.039c12.529-2.584 25.082-5.069 37.584-7.77a37185.93 37185.93 0 0 0 103.539-22.537c-1.072-4.759-.914-9.704.548-14.836z" opacity="1" data-original="#339966" class=""></path><g fill="#6c9"><path d="M154.757 257.293c-.608 2.809-1.452 5.507-3.187 7.843-1.72 2.317-3.94 3.956-6.728 4.753-1.897.543-3.822.983-5.808 1.058-2.986.112-5.736-.68-8.339-2.113-2.737-1.507-4.998-3.521-6.646-6.174-2.401-3.865-3.06-8.002-1.802-12.413a15.052 15.052 0 0 1 3.457-6.184c1.634-1.771 3.57-3.119 5.837-3.9 1.53-.527 3.126-.895 4.717-1.206 2.141-.42 4.277-.16 6.384.333.781.183 1.552.405 2.328.607 1.376.358 2.67.902 3.802 1.775.427.329.84.691 1.197 1.093.947 1.07 1.981 2.09 2.762 3.274 1.642 2.49 2.363 5.286 2.253 8.274-.036.996-.149 1.988-.227 2.98zM389.092 208.968c-.608 2.809-1.452 5.507-3.187 7.843-1.72 2.317-3.94 3.956-6.728 4.753-1.897.543-3.822.983-5.808 1.058-2.986.112-5.736-.68-8.339-2.113-2.737-1.507-4.998-3.521-6.646-6.174-2.401-3.865-3.06-8.002-1.802-12.413a15.052 15.052 0 0 1 3.457-6.184c1.634-1.771 3.57-3.119 5.837-3.9 1.53-.527 3.126-.895 4.717-1.206 2.141-.42 4.277-.16 6.384.333.781.183 1.552.405 2.328.607 1.376.358 2.67.902 3.802 1.775.427.329.84.691 1.197 1.093.947 1.07 1.981 2.09 2.762 3.274 1.642 2.49 2.363 5.286 2.253 8.274-.037.996-.149 1.988-.227 2.98z" fill="#66cc99" opacity="1" data-original="#66cc99" class=""></path></g><path fill="#66cc99" d="M320.66 241.013c-1.905 11.354-6.678 22.274-14.366 31.319-18.654 21.948-51.569 29.616-77.87 17.676a78.863 78.863 0 0 1-2.255-1.077c-39.171-19.653-51.885-75.8-17.121-105.882 22.563-19.524 59.791-23.172 84.995-6.686 21.665 14.172 30.684 40.401 26.617 64.65z" opacity="1" data-original="#66cc99" class=""></path><path fill="#ffffff" d="M269.093 267.519c.454 2.204.978 4.675 1.471 7.153.405 2.033.212 2.425-1.853 2.848-2.767.568-5.559 1.02-8.351 1.452-1.66.257-2.187-.148-2.564-1.854-.498-2.255-.941-4.522-1.433-6.909-1.016-.036-1.863-.086-2.71-.092-6.692-.045-12.196-2.721-16.745-7.531-1.983-2.096-3.035-4.746-4.296-7.261-.638-1.272-.261-2.162 1.014-2.908a7.022 7.022 0 0 1 2.003-.797c2.689-.586 5.396-1.092 8.09-1.655 1.255-.262 2.013.247 2.673 1.307.991 1.591 2.06 3.148 3.237 4.605 2.161 2.674 5.168 3.393 8.405 3.094 3.61-.333 7.057-1.574 9.758-3.91 6.463-5.587 5.699-12.99-1.258-17.613-2.986-1.984-6.566-2.578-10.097-3.114-6.371-.968-12.776-1.854-18.839-4.155a31.62 31.62 0 0 1-6.34-3.281c-4.479-3.003-6.327-7.448-6.085-12.721.387-8.414 4.48-14.491 11.97-18.299.964-.49 1.963-.912 3.156-1.463-.184-1.091-.353-2.21-.565-3.321-.258-1.352-.565-2.695-.829-4.046-.291-1.489-.046-2.151 1.319-2.491 2.946-.735 5.929-1.325 8.905-1.938 1.178-.242 1.985.362 2.397 1.406.45 1.142.834 2.317 1.142 3.505.343 1.323.568 2.677.861 4.095 1.08.084 1.925.161 2.773.215 10.04.637 15.313 6.732 19.735 14.994.665 1.242.312 2.23-.932 2.928-.68.382-1.461.643-2.229.8-1.845.376-3.718.618-5.564.991-1.525.308-2.573-.079-3.494-1.443-.875-1.296-2.071-2.397-3.222-3.482-5.377-5.071-15.271-2.06-18.497 3.651-1.598 2.828-.988 6.383 1.56 8.434a11.558 11.558 0 0 0 5.933 2.507c2.439.294 4.898.413 7.344.653 3.311.325 6.645.534 9.922 1.074 9.453 1.558 17.565 9.2 19.12 18.161.686 3.952.363 7.816-1.307 11.481-1.707 3.744-4.086 7.017-7.47 9.434-2.521 1.803-5.129 3.484-8.108 5.496z" opacity="1" data-original="#ffffff" class=""></path></g></svg>