<svg xmlns="http://www.w3.org/2000/svg" version="1.1" xmlns:xlink="http://www.w3.org/1999/xlink" width="512" height="512" x="0" y="0" viewBox="0 0 32 32" style="enable-background:new 0 0 512 512" xml:space="preserve" class=""><g><path d="M16 12.5a3.5 3.5 0 1 0 3.5 3.5 3.5 3.5 0 0 0-3.5-3.5zm0 5a1.5 1.5 0 1 1 1.5-1.5 1.5 1.5 0 0 1-1.5 1.5zm10.5-5A3.5 3.5 0 1 0 30 16a3.5 3.5 0 0 0-3.5-3.5zm0 5A1.5 1.5 0 1 1 28 16a1.5 1.5 0 0 1-1.5 1.5zm-21-5A3.5 3.5 0 1 0 9 16a3.5 3.5 0 0 0-3.5-3.5zm0 5A1.5 1.5 0 1 1 7 16a1.5 1.5 0 0 1-1.5 1.5z" fill="#000000" opacity="1" data-original="#000000"></path></g></svg>