<svg xmlns="http://www.w3.org/2000/svg" xmlns:xlink="http://www.w3.org/1999/xlink" width="24" height="24" viewBox="0 0 24 24"><defs><style>.a{fill-rule:evenodd;fill:url(#a);}</style><linearGradient id="a" x1="0.069" y1="-0.381" x2="0.837" y2="-0.479" gradientUnits="objectBoundingBox"><stop offset="0" stop-color="#52a476"/><stop offset="1" stop-color="#2088a2"/></linearGradient></defs><path class="a" d="M19.383,7.758A11.892,11.892,0,0,1,25.44,9.406a12.121,12.121,0,0,1,3.031,18.308A12.227,12.227,0,0,1,21.7,31.758V23.132h2.353l.532-3.39H21.022v-2.22a1.929,1.929,0,0,1,.41-1.275,1.876,1.876,0,0,1,1.506-.573H25.09V12.7q-.046-.015-.879-.118a17.47,17.47,0,0,0-1.9-.118,4.737,4.737,0,0,0-3.4,1.214,4.691,4.691,0,0,0-1.279,3.483v2.576H14.921v3.39h2.712v8.626a11.933,11.933,0,0,1-7.339-4.044A12.107,12.107,0,0,1,13.325,9.406a11.9,11.9,0,0,1,6.057-1.648Z" transform="translate(-7.383 -7.758)"/></svg>