<svg xmlns="http://www.w3.org/2000/svg" version="1.1" xmlns:xlink="http://www.w3.org/1999/xlink" width="512" height="512" x="0" y="0" viewBox="0 0 24 24" style="enable-background:new 0 0 512 512" xml:space="preserve" class=""><g><path fill="#000000" fill-rule="evenodd" d="M8.066 9.442h7.868c.005-.137.009-.294.009-.465 0-.664-.055-1.533-.265-2.39-.212-.86-.568-1.657-1.134-2.233-.549-.558-1.342-.959-2.544-.959s-1.995.4-2.544.959c-.566.576-.922 1.374-1.134 2.234-.21.856-.265 1.725-.265 2.389 0 .171.004.328.01.465Zm9.24 0c.005-.14.008-.297.008-.465 0-.732-.06-1.723-.306-2.728-.246-1-.69-2.063-1.495-2.882C14.691 2.53 13.541 2 12 2s-2.69.53-3.513 1.367c-.805.82-1.25 1.882-1.495 2.882-.247 1.005-.306 1.996-.306 2.728 0 .168.003.324.008.465h-.18C5.126 9.442 4 10.587 4 12v7.442C4 20.855 5.126 22 6.514 22h10.972C18.874 22 20 20.855 20 19.442V12c0-1.413-1.126-2.558-2.514-2.558h-.18Zm-9.197.612Zm-1.595.783c-.63 0-1.143.52-1.143 1.163v7.442c0 .642.512 1.163 1.143 1.163h10.972c.63 0 1.143-.52 1.143-1.163V12c0-.642-.512-1.163-1.143-1.163H6.514Z" clip-rule="evenodd" opacity="1" data-original="#000000"></path></g></svg>