<svg xmlns="http://www.w3.org/2000/svg" version="1.1" xmlns:xlink="http://www.w3.org/1999/xlink" width="512" height="512" x="0" y="0" viewBox="0 0 24 24" style="enable-background:new 0 0 512 512" xml:space="preserve" class=""><g><g fill="#004fac" data-name="Layer 2"><path d="M18.708 7.294a1 1 0 0 0-1.415 0 1 1 0 0 0 0 1.414L20.578 12l-3.286 3.294A1 1 0 0 0 18 17a.991.991 0 0 0 .708-.294l3.99-4a1 1 0 0 0 0-1.412z" fill="#004fac" opacity="1" data-original="#004fac"></path><path d="M22 11H8a1 1 0 0 0 0 2h14a1 1 0 0 0 0-2z" fill="#004fac" opacity="1" data-original="#004fac"></path><path d="M15 16a1 1 0 0 0-1 1v3a1 1 0 0 1-1 1H4a1 1 0 0 1-1-1V5a1 1 0 0 1 1-1h9a1 1 0 0 1 1 1v2a1 1 0 0 0 2 0V5a3 3 0 0 0-3-3H4a3 3 0 0 0-3 3v15a3 3 0 0 0 3 3h9a3 3 0 0 0 3-3v-3a1 1 0 0 0-1-1z" fill="#004fac" opacity="1" data-original="#004fac"></path></g></g></svg>