<svg xmlns="http://www.w3.org/2000/svg" width="32" height="32" viewBox="0 0 32 32">
  <g id="translate" transform="translate(-319 -443)">
    <rect id="Rectangle_5179" data-name="Rectangle 5179" width="32" height="32" transform="translate(319 443)" fill="#fff" opacity="0"/>
    <g id="Group_6331" data-name="Group 6331" transform="translate(0 -1)">
      <circle id="Ellipse_9" data-name="Ellipse 9" cx="10" cy="10" r="10" transform="translate(331 456)" fill="#fff" opacity="0.15"/>
      <g id="down_debt" transform="translate(-12 315)">
        <rect id="Rectangle_5165" data-name="Rectangle 5165" width="24" height="24" transform="translate(335 129)" fill="#fff" opacity="0"/>
        <g id="Group_6304" data-name="Group 6304" transform="translate(-1.415 -2.136)">
          <path id="Rectangle_5166_-_Outline" data-name="Rectangle 5166 - Outline" d="M4,1.7A2.686,2.686,0,0,0,1.5,4.535v10.2A2.686,2.686,0,0,0,4,17.572H20a2.686,2.686,0,0,0,2.5-2.834V4.535A2.686,2.686,0,0,0,20,1.7H4M4,0H20a4.293,4.293,0,0,1,4,4.535v10.2a4.293,4.293,0,0,1-4,4.535H4a4.293,4.293,0,0,1-4-4.535V4.535A4.293,4.293,0,0,1,4,0Z" transform="translate(336.415 134)" fill="#fff"/>
          <g id="Group_6303" data-name="Group 6303" transform="translate(340.424 135.501)">
            <path id="Path_7321" data-name="Path 7321" d="M15.982,0H0V15.982H15.982Z" fill="none"/>
            <path id="Path_7322" data-name="Path 7322" d="M2.966,14.341a.716.716,0,0,1-.506-1.222L7.787,7.791a.716.716,0,0,1,1.012,0l2.157,2.157L14.446,6.46a.716.716,0,0,1,1.012,1.012l-4,4a.716.716,0,0,1-1.012,0L8.293,9.31,3.472,14.131A.714.714,0,0,1,2.966,14.341Z" transform="translate(-0.968 -2.304)" fill="#fff"/>
            <path id="Path_7323" data-name="Path 7323" d="M18.627,15.343H13.966a.716.716,0,0,1-.716-.716V9.966a.716.716,0,0,1,1.432,0v3.946h3.946a.716.716,0,0,1,0,1.432Z" transform="translate(-11.968 -3.307)" fill="#fff"/>
          </g>
        </g>
      </g>
    </g>
  </g>
</svg>
