<svg xmlns="http://www.w3.org/2000/svg" version="1.1" xmlns:xlink="http://www.w3.org/1999/xlink" width="512" height="512" x="0" y="0" viewBox="0 0 512 512" style="enable-background:new 0 0 512 512" xml:space="preserve" class=""><g><path d="M502.864 260.226c17.4-58.491 6.708-103.721-5.331-131.365-15.754-36.175-43.825-64.322-77.015-77.224a112.936 112.936 0 0 0-90.626 3.544c-25.929 12.432-49.006 34.862-67.588 65.49-18.581-30.628-41.659-53.058-67.588-65.49a112.952 112.952 0 0 0-90.626-3.544 127.664 127.664 0 0 0-34.356 20.21l-48.1-48.1a12.671 12.671 0 0 0-17.92 17.92l47.9 47.9a155.947 155.947 0 0 0-24.535 39.3c-12.038 27.644-22.735 72.874-5.33 131.365 13.12 44.092 46.363 92.165 93.608 135.363 44.743 40.905 96.95 72.482 143.243 86.628a12.678 12.678 0 0 0 7.407 0c36.919-11.282 77.6-33.657 115.256-63l69.037 69.032a12.672 12.672 0 0 0 17.92-17.921l-67.305-67.3q4.209-3.666 8.339-7.441c47.246-43.202 80.49-91.275 93.61-135.367zM262.3 456.819c-41.9-13.622-89-42.581-129.849-79.933C88.555 336.745 57.863 292.747 46.035 253c-15.219-51.159-6.077-90.245 4.276-114.018a131.156 131.156 0 0 1 19.272-31.443l293.625 293.623C329.98 426.7 294.6 446.32 262.3 456.819zm129.85-79.933q-4.551 4.162-9.206 8.176L87.755 89.869a101.716 101.716 0 0 1 25.518-14.611c40.657-15.807 98.168-3.755 137.634 77.47a12.672 12.672 0 0 0 22.795 0c39.466-81.225 96.976-93.275 137.633-77.47 26.939 10.471 49.887 33.7 62.962 63.722 10.354 23.774 19.5 62.855 4.277 114.018-11.828 39.749-42.52 83.747-86.42 123.888z" fill="#000000" opacity="1" data-original="#000000"></path></g></svg>