<svg xmlns="http://www.w3.org/2000/svg" version="1.1" xmlns:xlink="http://www.w3.org/1999/xlink" width="512" height="512" x="0" y="0" viewBox="0 0 512 511" style="enable-background:new 0 0 512 512" xml:space="preserve" class=""><g><path d="M436.977 437.422c-100.036 100.035-261.934 100.02-361.957 0-100.036-100.04-100.02-261.938 0-361.957 7.808-7.813 20.468-7.813 28.277 0 7.812 7.808 7.812 20.469 0 28.277-84.402 84.403-84.39 221.008 0 305.399 84.406 84.41 221.012 84.394 305.402.004 84.406-84.407 84.395-221.012 0-305.403-7.808-7.808-7.808-20.472 0-28.277 7.809-7.809 20.469-7.813 28.278 0 100.039 100.035 100.023 261.933 0 361.957zM256 276.437c11.043 0 19.996-8.953 19.996-19.996V20.496C275.996 9.453 267.043.5 256 .5s-19.996 8.953-19.996 19.996v235.945c0 11.043 8.953 19.997 19.996 19.997zm0 0" fill="#000000" opacity="1" data-original="#000000"></path></g></svg>