<svg xmlns="http://www.w3.org/2000/svg" version="1.1" xmlns:xlink="http://www.w3.org/1999/xlink" width="512" height="512" x="0" y="0" viewBox="0 0 24 24" style="enable-background:new 0 0 512 512" xml:space="preserve" class=""><g><path d="M21 6h-2V3c0-1.654-1.346-3-3-3H8C6.346 0 5 1.346 5 3v3H3C1.346 6 0 7.346 0 9v6c0 1.654 1.346 3 3 3h2v3c0 1.654 1.346 3 3 3h8c1.654 0 3-1.346 3-3v-3h2c1.654 0 3-1.346 3-3V9c0-1.654-1.346-3-3-3zM7 3a1 1 0 0 1 1-1h8a1 1 0 0 1 1 1v3H7zm10 18a1 1 0 0 1-1 1H8a1 1 0 0 1-1-1v-6a1 1 0 0 1 1-1h8a1 1 0 0 1 1 1zm5-6a1 1 0 0 1-1 1h-2v-1c0-1.654-1.346-3-3-3H8c-1.654 0-3 1.346-3 3v1H3a1 1 0 0 1-1-1V9a1 1 0 0 1 1-1h18a1 1 0 0 1 1 1z" fill="#000000" opacity="1" data-original="#000000" class=""></path><path d="M19 9h-1a1 1 0 1 0 0 2h1a1 1 0 1 0 0-2z" fill="#000000" opacity="1" data-original="#000000" class=""></path></g></svg>