<svg xmlns="http://www.w3.org/2000/svg" version="1.1" xmlns:xlink="http://www.w3.org/1999/xlink" width="512" height="512" x="0" y="0" viewBox="0 0 24 24" style="enable-background:new 0 0 512 512" xml:space="preserve" class=""><g><g fill="#000"><path d="M13.432 15.75h-9.03c-1.12 0-2.14-.58-2.71-1.55s-.59-2.13-.05-3.12l4.51-8.21a3.105 3.105 0 0 1 2.76-1.63c1.17 0 2.2.61 2.76 1.63l4.52 8.21c.54.98.52 2.15-.05 3.12s-1.59 1.55-2.71 1.55zm-4.52-13c-.61 0-1.15.32-1.44.85l-4.51 8.21c-.28.52-.27 1.12.02 1.63.3.51.83.81 1.42.81h9.03c.59 0 1.12-.3 1.42-.81s.31-1.11.02-1.63l-4.52-8.21c-.29-.53-.83-.85-1.44-.85z" fill="#000000" opacity="1" data-original="#000000" class=""></path><path d="M15.502 22.75c-4 0-7.25-3.25-7.25-7.25 0-.18.01-.36.02-.54.02-.4.35-.71.75-.71h4.41c.59 0 1.12-.3 1.42-.81s.31-1.11.02-1.63l-1.28-2.33c-.12-.21-.12-.46-.02-.68s.3-.37.53-.42c.45-.09.92-.13 1.4-.13 4 0 7.25 3.25 7.25 7.25s-3.25 7.25-7.25 7.25zm-5.74-7c.13 3.06 2.66 5.5 5.74 5.5 3.17 0 5.75-2.58 5.75-5.75s-2.58-5.75-5.75-5.75h-.05l.74 1.34c.54.98.52 2.15-.05 3.12s-1.58 1.55-2.71 1.55h-3.67z" fill="#000000" opacity="1" data-original="#000000" class=""></path></g></g></svg>