<svg xmlns="http://www.w3.org/2000/svg" width="40" height="40" viewBox="0 0 24 24" fill="none" class="injected-svg" data-src="https://cdn.hugeicons.com/icons/qr-code-01-stroke-standard.svg?v=2.0" xmlns:xlink="http://www.w3.org/1999/xlink" role="img" color="#000000">
    <path d="M18 15L18 18H14L14 15L18 15Z" stroke="#000000" stroke-width="1.5" stroke-linecap="round" stroke-linejoin="round"></path>
    <path d="M9 2.5H4.5C3.39543 2.5 2.5 3.39543 2.5 4.5V9M15 2.5H19.5C20.6046 2.5 21.5 3.39543 21.5 4.5V9M15 21.5H19.5C20.6046 21.5 21.5 20.6046 21.5 19.5V15M9 21.5H4.5C3.39543 21.5 2.5 20.6046 2.5 19.5V15" stroke="#000000" stroke-width="1.5" stroke-linecap="round" stroke-linejoin="round"></path>
    <path d="M13 6V13H6" stroke="#000000" stroke-width="1.5" stroke-linecap="round" stroke-linejoin="round"></path>
    <path d="M10 6L10 10H6L6 6L10 6Z" stroke="#000000" stroke-width="1.5" stroke-linecap="round" stroke-linejoin="round"></path>
    <path d="M6 18H11" stroke="#000000" stroke-width="1.5" stroke-linecap="round" stroke-linejoin="round"></path>
    <path d="M17 10.5L17 12" stroke="#000000" stroke-width="1.5" stroke-linecap="round" stroke-linejoin="round"></path>
    <path d="M17 6L17 7.5" stroke="#000000" stroke-width="1.5" stroke-linecap="round" stroke-linejoin="round"></path>
</svg>