<svg xmlns="http://www.w3.org/2000/svg" version="1.1" xmlns:xlink="http://www.w3.org/1999/xlink" width="512" height="512" x="0" y="0" viewBox="0 0 32 32" style="enable-background:new 0 0 512 512" xml:space="preserve" class=""><g><path d="M11.429 16a5.715 5.715 0 1 0-5.715-5.714A5.72 5.72 0 0 0 11.429 16Zm0-9.429a3.715 3.715 0 1 1-3.715 3.715 3.718 3.718 0 0 1 3.715-3.715ZM23.5 16.5a4.25 4.25 0 1 0-4.25-4.25 4.255 4.255 0 0 0 4.25 4.25Zm0-6.5a2.25 2.25 0 1 1-2.25 2.25A2.252 2.252 0 0 1 23.5 10ZM23.5 17.67a7.52 7.52 0 0 0-5.4 2.31A10.432 10.432 0 0 0 1 28a1 1 0 0 0 1 1h18.86a1 1 0 0 0 1-1 10.423 10.423 0 0 0-.167-1.83H30a1 1 0 0 0 1-1 7.508 7.508 0 0 0-7.5-7.5ZM3.059 27a8.424 8.424 0 0 1 16.41-1.521A7.954 7.954 0 0 1 19.8 27Zm18.052-2.83a10.392 10.392 0 0 0-1.611-2.762 5.493 5.493 0 0 1 9.411 2.762Z" fill="#000000" opacity="1" data-original="#000000" class=""></path></g></svg>