<svg id="users" xmlns="http://www.w3.org/2000/svg" width="24" height="24" viewBox="0 0 24 24">
  <path id="Path_18677" data-name="Path 18677" d="M0,0H24V24H0Z" fill="none"/>
  <path id="Ellipse_11" data-name="Ellipse 11" d="M4-.75A4.75,4.75,0,1,1-.75,4,4.755,4.755,0,0,1,4-.75Zm0,8A3.25,3.25,0,1,0,.75,4,3.254,3.254,0,0,0,4,7.25Z" transform="translate(5 3)" fill="#535357"/>
  <path id="Path_18678" data-name="Path 18678" d="M15,21.75H3A.75.75,0,0,1,2.25,21V19A4.755,4.755,0,0,1,7,14.25h4A4.755,4.755,0,0,1,15.75,19v2A.75.75,0,0,1,15,21.75ZM3.75,20.25h10.5V19A3.254,3.254,0,0,0,11,15.75H7A3.254,3.254,0,0,0,3.75,19Z" fill="#535357"/>
  <path id="Path_18679" data-name="Path 18679" d="M16,11.63a.75.75,0,0,1-.185-1.477,3.25,3.25,0,0,0,0-6.3A.75.75,0,0,1,16.186,2.4a4.75,4.75,0,0,1,0,9.2A.752.752,0,0,1,16,11.63Z" fill="#535357"/>
  <path id="Path_18680" data-name="Path 18680" d="M21,21.75a.75.75,0,0,1-.75-.75V19a3.252,3.252,0,0,0-2.437-3.124.75.75,0,1,1,.375-1.452A4.754,4.754,0,0,1,21.75,19v2A.75.75,0,0,1,21,21.75Z" fill="#535357"/>
</svg>
