<svg xmlns="http://www.w3.org/2000/svg" xmlns:xlink="http://www.w3.org/1999/xlink" width="24" height="24" viewBox="0 0 24 24"><defs><style>.a{fill-rule:evenodd;fill:url(#a);}</style><linearGradient id="a" x1="0.069" y1="-0.381" x2="0.837" y2="-0.479" gradientUnits="objectBoundingBox"><stop offset="0" stop-color="#52a476"/><stop offset="1" stop-color="#2088a2"/></linearGradient></defs><path class="a" d="M17.975,19.574a1.949,1.949,0,0,0-.409.044q-.992.263-.992,1.78a4.137,4.137,0,0,0,.919,2.189,7.326,7.326,0,0,0,2.758,2.48,8.148,8.148,0,0,0,2,.671h.175a2.354,2.354,0,0,0,1.007-.248,1.461,1.461,0,0,0,.875-1.371,1.548,1.548,0,0,0-.015-.219,5.39,5.39,0,0,0-.861-.482,3.972,3.972,0,0,0-1.007-.408h-.015q-.1,0-.482.482t-.511.5H21.39a2.525,2.525,0,0,1-.919-.394,4.988,4.988,0,0,1-1.4-1.24,2.587,2.587,0,0,1-.511-.846q0-.014.35-.467a.919.919,0,0,0,.277-.54,8.448,8.448,0,0,0-.379-.978,3.321,3.321,0,0,0-.467-.876.939.939,0,0,0-.365-.073Zm1.868-2.948h.511a6.21,6.21,0,0,1,4.99,2.32A6.065,6.065,0,0,1,26.949,23a7.3,7.3,0,0,1-.277,1.941,6.681,6.681,0,0,1-6.347,4.669,5.942,5.942,0,0,1-.715-.044,6.881,6.881,0,0,1-2.86-1.05l-2.5.8.584-1.765.233-.613q-.015,0-.423-.686a6.222,6.222,0,0,1-.773-2.5A4.979,4.979,0,0,1,13.817,23a6.167,6.167,0,0,1,2.758-5.194,6.158,6.158,0,0,1,3.268-1.182ZM19.9,15.4a7.741,7.741,0,0,0-5.107,2.364,7.639,7.639,0,0,0-2.218,5.282,8.118,8.118,0,0,0,.9,3.633,1.126,1.126,0,0,1,.1.453,1.361,1.361,0,0,1-.088.481q-1.255,3.633-1.255,3.662l.058-.1c.01.049.029.073.058.073q.788-.292,2.116-.715,1.722-.525,2.13-.656a8.361,8.361,0,0,0,3.75.963h.219A7.8,7.8,0,0,0,28.16,23.6v-.963a7.814,7.814,0,0,0-2.291-4.99A7.718,7.718,0,0,0,20.85,15.4Zm.3-4.063a12,12,0,1,1-12,12,12,12,0,0,1,12-12Z" transform="translate(-8.2 -11.339)"/></svg>